M48
; DRILL file - STM32 CAN ECU rev A - generated by hardware/gen/fab.py
; #@! TF.FileFunction,Plated,1,4,PTH
FMAT,2
METRIC,TZ
T1C0.300
T2C0.800
T3C1.000
T4C1.100
T5C1.300
%
G90
G05
T1
X137.512Y-110.000
X153.625Y-129.365
X153.625Y-130.635
X170.000Y-130.635
X167.137Y-119.000
X140.250Y-134.600
X141.700Y-134.550
X142.500Y-130.450
X138.300Y-129.500
X142.750Y-133.900
X142.600Y-129.250
X137.250Y-130.200
X138.450Y-118.900
X139.000Y-122.900
X140.250Y-122.900
X142.050Y-121.800
X140.900Y-118.500
X116.500Y-127.825
X125.875Y-124.125
X132.500Y-112.050
X139.400Y-108.275
X137.075Y-114.100
X138.850Y-114.550
X141.900Y-113.400
X137.675Y-104.000
X123.000Y-138.225
X125.400Y-138.175
X136.200Y-126.575
X136.200Y-123.225
X147.600Y-129.275
X147.600Y-125.925
X145.200Y-141.075
X145.200Y-137.725
X145.900Y-124.000
X150.100Y-124.000
X134.400Y-126.575
X134.400Y-123.225
X134.725Y-140.600
X138.075Y-142.600
X139.200Y-138.025
X141.000Y-138.025
X132.375Y-129.125
X128.625Y-132.175
X125.325Y-129.550
X131.350Y-136.075
X119.675Y-142.000
X137.125Y-118.800
X137.225Y-121.200
X124.275Y-142.000
X127.675Y-143.600
X149.000Y-152.275
X151.500Y-152.275
X154.000Y-152.275
X156.500Y-152.275
X142.000Y-145.225
X145.400Y-145.225
X154.225Y-128.825
X161.450Y-132.900
X163.025Y-125.400
X157.875Y-135.200
X158.725Y-135.200
X162.075Y-135.200
X158.300Y-137.400
X163.775Y-121.000
X165.950Y-146.900
X143.600Y-119.125
X137.125Y-117.600
X140.475Y-117.600
X142.275Y-116.600
X142.275Y-114.600
X149.175Y-110.000
X152.175Y-110.000
X138.250Y-124.125
X140.125Y-120.875
X141.250Y-122.125
X140.000Y-120.000
X141.875Y-119.625
X139.250Y-126.125
X139.250Y-118.625
X140.375Y-116.750
X144.875Y-117.625
X141.000Y-123.750
X139.125Y-129.125
X135.375Y-124.875
X149.250Y-136.000
X151.000Y-137.750
X143.000Y-132.250
X156.875Y-131.250
X138.375Y-139.750
X138.250Y-135.000
X130.500Y-134.375
X132.125Y-134.375
X129.375Y-135.125
X132.250Y-133.000
X140.125Y-129.125
X146.375Y-122.625
X130.500Y-138.250
X134.250Y-130.500
X137.375Y-111.500
X146.375Y-117.375
X147.375Y-118.375
X153.375Y-133.000
X154.750Y-134.500
T2
X129.000Y-121.000
X131.500Y-121.000
T3
X122.000Y-109.000
X124.540Y-109.000
X127.080Y-109.000
X163.000Y-141.200
X165.540Y-141.200
X163.000Y-143.740
X165.540Y-143.740
X143.000Y-104.000
X145.540Y-104.000
X148.080Y-104.000
X150.620Y-104.000
X153.160Y-104.000
X155.700Y-104.000
X130.000Y-157.000
X130.000Y-154.460
X132.540Y-157.000
X132.540Y-154.460
X135.080Y-157.000
X135.080Y-154.460
X137.620Y-157.000
X137.620Y-154.460
X140.160Y-157.000
X140.160Y-154.460
T4
X109.000Y-146.000
X109.000Y-150.500
X115.500Y-146.000
X115.500Y-150.500
X119.500Y-146.000
X119.500Y-150.500
X126.000Y-146.000
X126.000Y-150.500
T5
X105.000Y-118.000
X105.000Y-112.920
X175.300Y-112.900
X175.300Y-117.980
X175.300Y-123.060
X175.300Y-129.365
X175.300Y-134.445
X175.300Y-139.525
T0
M30
