G04 STM32 CAN ECU rev A - generated by hardware/gen/fab.py*
%TF.GenerationSoftware,custom,can-ecu-gen,1.0*%
%TF.ProjectId,CAN_ECU,00000000-0000-0000-0000-000000000000,A*%
%TF.FileFunction,Soldermask,Top*%
%TF.FilePolarity,Negative*%
%FSLAX46Y46*%
%MOMM*%
%LPD*%
G01*
%ADD10C,2.7000*%
%ADD11C,1.7000*%
%ADD12O,1.9000X1.9000*%
%ADD13C,2.1000*%
%ADD14O,1.8000X1.8000*%
%ADD15C,1.6000*%
%ADD16C,3.3000*%
G36*
X106300000Y-116650000D02*
X106319134Y-116653806D01*
X106335355Y-116664645D01*
X106346194Y-116680866D01*
X106350000Y-116700000D01*
X106350000Y-119300000D01*
X106346194Y-119319134D01*
X106335355Y-119335355D01*
X106319134Y-119346194D01*
X106300000Y-119350000D01*
X103700000Y-119350000D01*
X103680866Y-119346194D01*
X103664645Y-119335355D01*
X103653806Y-119319134D01*
X103650000Y-119300000D01*
X103650000Y-116700000D01*
X103653806Y-116680866D01*
X103664645Y-116664645D01*
X103680866Y-116653806D01*
X103700000Y-116650000D01*
X106300000Y-116650000D01*
G37*
D10*
X105000000Y-112920000D03*
G36*
X110693750Y-116250000D02*
X110839648Y-116279021D01*
X110963334Y-116361666D01*
X111045979Y-116485352D01*
X111075000Y-116631250D01*
X111075000Y-119368750D01*
X111045979Y-119514648D01*
X110963334Y-119638334D01*
X110839648Y-119720979D01*
X110693750Y-119750000D01*
X110031250Y-119750000D01*
X109885352Y-119720979D01*
X109761666Y-119638334D01*
X109679021Y-119514648D01*
X109650000Y-119368750D01*
X109650000Y-116631250D01*
X109679021Y-116485352D01*
X109761666Y-116361666D01*
X109885352Y-116279021D01*
X110031250Y-116250000D01*
X110693750Y-116250000D01*
G37*
G36*
X114968750Y-116250000D02*
X115114648Y-116279021D01*
X115238334Y-116361666D01*
X115320979Y-116485352D01*
X115350000Y-116631250D01*
X115350000Y-119368750D01*
X115320979Y-119514648D01*
X115238334Y-119638334D01*
X115114648Y-119720979D01*
X114968750Y-119750000D01*
X114306250Y-119750000D01*
X114160352Y-119720979D01*
X114036666Y-119638334D01*
X113954021Y-119514648D01*
X113925000Y-119368750D01*
X113925000Y-116631250D01*
X113954021Y-116485352D01*
X114036666Y-116361666D01*
X114160352Y-116279021D01*
X114306250Y-116250000D01*
X114968750Y-116250000D01*
G37*
G36*
X117650000Y-120550000D02*
X117669134Y-120553806D01*
X117685355Y-120564645D01*
X117696194Y-120580866D01*
X117700000Y-120600000D01*
X117700000Y-123100000D01*
X117696194Y-123119134D01*
X117685355Y-123135355D01*
X117669134Y-123146194D01*
X117650000Y-123150000D01*
X115350000Y-123150000D01*
X115330866Y-123146194D01*
X115314645Y-123135355D01*
X115303806Y-123119134D01*
X115300000Y-123100000D01*
X115300000Y-120600000D01*
X115303806Y-120580866D01*
X115314645Y-120564645D01*
X115330866Y-120553806D01*
X115350000Y-120550000D01*
X117650000Y-120550000D01*
G37*
G36*
X117650000Y-124850000D02*
X117669134Y-124853806D01*
X117685355Y-124864645D01*
X117696194Y-124880866D01*
X117700000Y-124900000D01*
X117700000Y-127400000D01*
X117696194Y-127419134D01*
X117685355Y-127435355D01*
X117669134Y-127446194D01*
X117650000Y-127450000D01*
X115350000Y-127450000D01*
X115330866Y-127446194D01*
X115314645Y-127435355D01*
X115303806Y-127419134D01*
X115300000Y-127400000D01*
X115300000Y-124900000D01*
X115303806Y-124880866D01*
X115314645Y-124864645D01*
X115330866Y-124853806D01*
X115350000Y-124850000D01*
X117650000Y-124850000D01*
G37*
G36*
X123250000Y-117050000D02*
X123269134Y-117053806D01*
X123285355Y-117064645D01*
X123296194Y-117080866D01*
X123300000Y-117100000D01*
X123300000Y-118900000D01*
X123296194Y-118919134D01*
X123285355Y-118935355D01*
X123269134Y-118946194D01*
X123250000Y-118950000D01*
X120750000Y-118950000D01*
X120730866Y-118946194D01*
X120714645Y-118935355D01*
X120703806Y-118919134D01*
X120700000Y-118900000D01*
X120700000Y-117100000D01*
X120703806Y-117080866D01*
X120714645Y-117064645D01*
X120730866Y-117053806D01*
X120750000Y-117050000D01*
X123250000Y-117050000D01*
G37*
G36*
X119250000Y-117050000D02*
X119269134Y-117053806D01*
X119285355Y-117064645D01*
X119296194Y-117080866D01*
X119300000Y-117100000D01*
X119300000Y-118900000D01*
X119296194Y-118919134D01*
X119285355Y-118935355D01*
X119269134Y-118946194D01*
X119250000Y-118950000D01*
X116750000Y-118950000D01*
X116730866Y-118946194D01*
X116714645Y-118935355D01*
X116703806Y-118919134D01*
X116700000Y-118900000D01*
X116700000Y-117100000D01*
X116703806Y-117080866D01*
X116714645Y-117064645D01*
X116730866Y-117053806D01*
X116750000Y-117050000D01*
X119250000Y-117050000D01*
G37*
G36*
X126262500Y-118875000D02*
X126391656Y-118900691D01*
X126501149Y-118973851D01*
X126574309Y-119083344D01*
X126600000Y-119212500D01*
X126600000Y-119787500D01*
X126574309Y-119916656D01*
X126501149Y-120026149D01*
X126391656Y-120099309D01*
X126262500Y-120125000D01*
X124137500Y-120125000D01*
X124008344Y-120099309D01*
X123898851Y-120026149D01*
X123825691Y-119916656D01*
X123800000Y-119787500D01*
X123800000Y-119212500D01*
X123825691Y-119083344D01*
X123898851Y-118973851D01*
X124008344Y-118900691D01*
X124137500Y-118875000D01*
X126262500Y-118875000D01*
G37*
G36*
X126262500Y-121875000D02*
X126391656Y-121900691D01*
X126501149Y-121973851D01*
X126574309Y-122083344D01*
X126600000Y-122212500D01*
X126600000Y-122787500D01*
X126574309Y-122916656D01*
X126501149Y-123026149D01*
X126391656Y-123099309D01*
X126262500Y-123125000D01*
X124137500Y-123125000D01*
X124008344Y-123099309D01*
X123898851Y-123026149D01*
X123825691Y-122916656D01*
X123800000Y-122787500D01*
X123800000Y-122212500D01*
X123825691Y-122083344D01*
X123898851Y-121973851D01*
X124008344Y-121900691D01*
X124137500Y-121875000D01*
X126262500Y-121875000D01*
G37*
G36*
X129800000Y-120150000D02*
X129819134Y-120153806D01*
X129835355Y-120164645D01*
X129846194Y-120180866D01*
X129850000Y-120200000D01*
X129850000Y-121800000D01*
X129846194Y-121819134D01*
X129835355Y-121835355D01*
X129819134Y-121846194D01*
X129800000Y-121850000D01*
X128200000Y-121850000D01*
X128180866Y-121846194D01*
X128164645Y-121835355D01*
X128153806Y-121819134D01*
X128150000Y-121800000D01*
X128150000Y-120200000D01*
X128153806Y-120180866D01*
X128164645Y-120164645D01*
X128180866Y-120153806D01*
X128200000Y-120150000D01*
X129800000Y-120150000D01*
G37*
D11*
X131500000Y-121000000D03*
G36*
X122900000Y-108050000D02*
X122919134Y-108053806D01*
X122935355Y-108064645D01*
X122946194Y-108080866D01*
X122950000Y-108100000D01*
X122950000Y-109900000D01*
X122946194Y-109919134D01*
X122935355Y-109935355D01*
X122919134Y-109946194D01*
X122900000Y-109950000D01*
X121100000Y-109950000D01*
X121080866Y-109946194D01*
X121064645Y-109935355D01*
X121053806Y-109919134D01*
X121050000Y-109900000D01*
X121050000Y-108100000D01*
X121053806Y-108080866D01*
X121064645Y-108064645D01*
X121080866Y-108053806D01*
X121100000Y-108050000D01*
X122900000Y-108050000D01*
G37*
D12*
X124540000Y-109000000D03*
X127080000Y-109000000D03*
G36*
X132975000Y-108450000D02*
X133089805Y-108472836D01*
X133187132Y-108537868D01*
X133252164Y-108635195D01*
X133275000Y-108750000D01*
X133275000Y-109250000D01*
X133252164Y-109364805D01*
X133187132Y-109462132D01*
X133089805Y-109527164D01*
X132975000Y-109550000D01*
X132025000Y-109550000D01*
X131910195Y-109527164D01*
X131812868Y-109462132D01*
X131747836Y-109364805D01*
X131725000Y-109250000D01*
X131725000Y-108750000D01*
X131747836Y-108635195D01*
X131812868Y-108537868D01*
X131910195Y-108472836D01*
X132025000Y-108450000D01*
X132975000Y-108450000D01*
G37*
G36*
X132975000Y-110350000D02*
X133089805Y-110372836D01*
X133187132Y-110437868D01*
X133252164Y-110535195D01*
X133275000Y-110650000D01*
X133275000Y-111150000D01*
X133252164Y-111264805D01*
X133187132Y-111362132D01*
X133089805Y-111427164D01*
X132975000Y-111450000D01*
X132025000Y-111450000D01*
X131910195Y-111427164D01*
X131812868Y-111362132D01*
X131747836Y-111264805D01*
X131725000Y-111150000D01*
X131725000Y-110650000D01*
X131747836Y-110535195D01*
X131812868Y-110437868D01*
X131910195Y-110372836D01*
X132025000Y-110350000D01*
X132975000Y-110350000D01*
G37*
G36*
X136875000Y-108700000D02*
X136951537Y-108715224D01*
X137016421Y-108758579D01*
X137059776Y-108823463D01*
X137075000Y-108900000D01*
X137075000Y-109200000D01*
X137059776Y-109276537D01*
X137016421Y-109341421D01*
X136951537Y-109384776D01*
X136875000Y-109400000D01*
X135850000Y-109400000D01*
X135773463Y-109384776D01*
X135708579Y-109341421D01*
X135665224Y-109276537D01*
X135650000Y-109200000D01*
X135650000Y-108900000D01*
X135665224Y-108823463D01*
X135708579Y-108758579D01*
X135773463Y-108715224D01*
X135850000Y-108700000D01*
X136875000Y-108700000D01*
G37*
G36*
X136875000Y-109650000D02*
X136951537Y-109665224D01*
X137016421Y-109708579D01*
X137059776Y-109773463D01*
X137075000Y-109850000D01*
X137075000Y-110150000D01*
X137059776Y-110226537D01*
X137016421Y-110291421D01*
X136951537Y-110334776D01*
X136875000Y-110350000D01*
X135850000Y-110350000D01*
X135773463Y-110334776D01*
X135708579Y-110291421D01*
X135665224Y-110226537D01*
X135650000Y-110150000D01*
X135650000Y-109850000D01*
X135665224Y-109773463D01*
X135708579Y-109708579D01*
X135773463Y-109665224D01*
X135850000Y-109650000D01*
X136875000Y-109650000D01*
G37*
G36*
X136875000Y-110600000D02*
X136951537Y-110615224D01*
X137016421Y-110658579D01*
X137059776Y-110723463D01*
X137075000Y-110800000D01*
X137075000Y-111100000D01*
X137059776Y-111176537D01*
X137016421Y-111241421D01*
X136951537Y-111284776D01*
X136875000Y-111300000D01*
X135850000Y-111300000D01*
X135773463Y-111284776D01*
X135708579Y-111241421D01*
X135665224Y-111176537D01*
X135650000Y-111100000D01*
X135650000Y-110800000D01*
X135665224Y-110723463D01*
X135708579Y-110658579D01*
X135773463Y-110615224D01*
X135850000Y-110600000D01*
X136875000Y-110600000D01*
G37*
G36*
X139150000Y-110600000D02*
X139226537Y-110615224D01*
X139291421Y-110658579D01*
X139334776Y-110723463D01*
X139350000Y-110800000D01*
X139350000Y-111100000D01*
X139334776Y-111176537D01*
X139291421Y-111241421D01*
X139226537Y-111284776D01*
X139150000Y-111300000D01*
X138125000Y-111300000D01*
X138048463Y-111284776D01*
X137983579Y-111241421D01*
X137940224Y-111176537D01*
X137925000Y-111100000D01*
X137925000Y-110800000D01*
X137940224Y-110723463D01*
X137983579Y-110658579D01*
X138048463Y-110615224D01*
X138125000Y-110600000D01*
X139150000Y-110600000D01*
G37*
G36*
X139150000Y-108700000D02*
X139226537Y-108715224D01*
X139291421Y-108758579D01*
X139334776Y-108823463D01*
X139350000Y-108900000D01*
X139350000Y-109200000D01*
X139334776Y-109276537D01*
X139291421Y-109341421D01*
X139226537Y-109384776D01*
X139150000Y-109400000D01*
X138125000Y-109400000D01*
X138048463Y-109384776D01*
X137983579Y-109341421D01*
X137940224Y-109276537D01*
X137925000Y-109200000D01*
X137925000Y-108900000D01*
X137940224Y-108823463D01*
X137983579Y-108758579D01*
X138048463Y-108715224D01*
X138125000Y-108700000D01*
X139150000Y-108700000D01*
G37*
G36*
X135750000Y-112675000D02*
X135855238Y-112695933D01*
X135944454Y-112755546D01*
X136004067Y-112844762D01*
X136025000Y-112950000D01*
X136025000Y-113450000D01*
X136004067Y-113555238D01*
X135944454Y-113644454D01*
X135855238Y-113704067D01*
X135750000Y-113725000D01*
X135300000Y-113725000D01*
X135194762Y-113704067D01*
X135105546Y-113644454D01*
X135045933Y-113555238D01*
X135025000Y-113450000D01*
X135025000Y-112950000D01*
X135045933Y-112844762D01*
X135105546Y-112755546D01*
X135194762Y-112695933D01*
X135300000Y-112675000D01*
X135750000Y-112675000D01*
G37*
G36*
X137300000Y-112675000D02*
X137405238Y-112695933D01*
X137494454Y-112755546D01*
X137554067Y-112844762D01*
X137575000Y-112950000D01*
X137575000Y-113450000D01*
X137554067Y-113555238D01*
X137494454Y-113644454D01*
X137405238Y-113704067D01*
X137300000Y-113725000D01*
X136850000Y-113725000D01*
X136744762Y-113704067D01*
X136655546Y-113644454D01*
X136595933Y-113555238D01*
X136575000Y-113450000D01*
X136575000Y-112950000D01*
X136595933Y-112844762D01*
X136655546Y-112755546D01*
X136744762Y-112695933D01*
X136850000Y-112675000D01*
X137300000Y-112675000D01*
G37*
G36*
X139100000Y-112625000D02*
X139214805Y-112647836D01*
X139312132Y-112712868D01*
X139377164Y-112810195D01*
X139400000Y-112925000D01*
X139400000Y-113875000D01*
X139377164Y-113989805D01*
X139312132Y-114087132D01*
X139214805Y-114152164D01*
X139100000Y-114175000D01*
X138600000Y-114175000D01*
X138485195Y-114152164D01*
X138387868Y-114087132D01*
X138322836Y-113989805D01*
X138300000Y-113875000D01*
X138300000Y-112925000D01*
X138322836Y-112810195D01*
X138387868Y-112712868D01*
X138485195Y-112647836D01*
X138600000Y-112625000D01*
X139100000Y-112625000D01*
G37*
G36*
X141000000Y-112625000D02*
X141114805Y-112647836D01*
X141212132Y-112712868D01*
X141277164Y-112810195D01*
X141300000Y-112925000D01*
X141300000Y-113875000D01*
X141277164Y-113989805D01*
X141212132Y-114087132D01*
X141114805Y-114152164D01*
X141000000Y-114175000D01*
X140500000Y-114175000D01*
X140385195Y-114152164D01*
X140287868Y-114087132D01*
X140222836Y-113989805D01*
X140200000Y-113875000D01*
X140200000Y-112925000D01*
X140222836Y-112810195D01*
X140287868Y-112712868D01*
X140385195Y-112647836D01*
X140500000Y-112625000D01*
X141000000Y-112625000D01*
G37*
G36*
X132175000Y-103475000D02*
X132270671Y-103494030D01*
X132351777Y-103548223D01*
X132405970Y-103629329D01*
X132425000Y-103725000D01*
X132425000Y-104275000D01*
X132405970Y-104370671D01*
X132351777Y-104451777D01*
X132270671Y-104505970D01*
X132175000Y-104525000D01*
X131775000Y-104525000D01*
X131679329Y-104505970D01*
X131598223Y-104451777D01*
X131544030Y-104370671D01*
X131525000Y-104275000D01*
X131525000Y-103725000D01*
X131544030Y-103629329D01*
X131598223Y-103548223D01*
X131679329Y-103494030D01*
X131775000Y-103475000D01*
X132175000Y-103475000D01*
G37*
G36*
X133825000Y-103475000D02*
X133920671Y-103494030D01*
X134001777Y-103548223D01*
X134055970Y-103629329D01*
X134075000Y-103725000D01*
X134075000Y-104275000D01*
X134055970Y-104370671D01*
X134001777Y-104451777D01*
X133920671Y-104505970D01*
X133825000Y-104525000D01*
X133425000Y-104525000D01*
X133329329Y-104505970D01*
X133248223Y-104451777D01*
X133194030Y-104370671D01*
X133175000Y-104275000D01*
X133175000Y-103725000D01*
X133194030Y-103629329D01*
X133248223Y-103548223D01*
X133329329Y-103494030D01*
X133425000Y-103475000D01*
X133825000Y-103475000D01*
G37*
G36*
X137006250Y-103475000D02*
X137109096Y-103495457D01*
X137196285Y-103553715D01*
X137254543Y-103640904D01*
X137275000Y-103743750D01*
X137275000Y-104256250D01*
X137254543Y-104359096D01*
X137196285Y-104446285D01*
X137109096Y-104504543D01*
X137006250Y-104525000D01*
X136568750Y-104525000D01*
X136465904Y-104504543D01*
X136378715Y-104446285D01*
X136320457Y-104359096D01*
X136300000Y-104256250D01*
X136300000Y-103743750D01*
X136320457Y-103640904D01*
X136378715Y-103553715D01*
X136465904Y-103495457D01*
X136568750Y-103475000D01*
X137006250Y-103475000D01*
G37*
G36*
X135431250Y-103475000D02*
X135534096Y-103495457D01*
X135621285Y-103553715D01*
X135679543Y-103640904D01*
X135700000Y-103743750D01*
X135700000Y-104256250D01*
X135679543Y-104359096D01*
X135621285Y-104446285D01*
X135534096Y-104504543D01*
X135431250Y-104525000D01*
X134993750Y-104525000D01*
X134890904Y-104504543D01*
X134803715Y-104446285D01*
X134745457Y-104359096D01*
X134725000Y-104256250D01*
X134725000Y-103743750D01*
X134745457Y-103640904D01*
X134803715Y-103553715D01*
X134890904Y-103495457D01*
X134993750Y-103475000D01*
X135431250Y-103475000D01*
G37*
G36*
X123275000Y-130725000D02*
X123370671Y-130744030D01*
X123451777Y-130798223D01*
X123505970Y-130879329D01*
X123525000Y-130975000D01*
X123525000Y-131375000D01*
X123505970Y-131470671D01*
X123451777Y-131551777D01*
X123370671Y-131605970D01*
X123275000Y-131625000D01*
X122725000Y-131625000D01*
X122629329Y-131605970D01*
X122548223Y-131551777D01*
X122494030Y-131470671D01*
X122475000Y-131375000D01*
X122475000Y-130975000D01*
X122494030Y-130879329D01*
X122548223Y-130798223D01*
X122629329Y-130744030D01*
X122725000Y-130725000D01*
X123275000Y-130725000D01*
G37*
G36*
X123275000Y-132375000D02*
X123370671Y-132394030D01*
X123451777Y-132448223D01*
X123505970Y-132529329D01*
X123525000Y-132625000D01*
X123525000Y-133025000D01*
X123505970Y-133120671D01*
X123451777Y-133201777D01*
X123370671Y-133255970D01*
X123275000Y-133275000D01*
X122725000Y-133275000D01*
X122629329Y-133255970D01*
X122548223Y-133201777D01*
X122494030Y-133120671D01*
X122475000Y-133025000D01*
X122475000Y-132625000D01*
X122494030Y-132529329D01*
X122548223Y-132448223D01*
X122629329Y-132394030D01*
X122725000Y-132375000D01*
X123275000Y-132375000D01*
G37*
G36*
X123275000Y-135225000D02*
X123370671Y-135244030D01*
X123451777Y-135298223D01*
X123505970Y-135379329D01*
X123525000Y-135475000D01*
X123525000Y-135875000D01*
X123505970Y-135970671D01*
X123451777Y-136051777D01*
X123370671Y-136105970D01*
X123275000Y-136125000D01*
X122725000Y-136125000D01*
X122629329Y-136105970D01*
X122548223Y-136051777D01*
X122494030Y-135970671D01*
X122475000Y-135875000D01*
X122475000Y-135475000D01*
X122494030Y-135379329D01*
X122548223Y-135298223D01*
X122629329Y-135244030D01*
X122725000Y-135225000D01*
X123275000Y-135225000D01*
G37*
G36*
X123275000Y-136875000D02*
X123370671Y-136894030D01*
X123451777Y-136948223D01*
X123505970Y-137029329D01*
X123525000Y-137125000D01*
X123525000Y-137525000D01*
X123505970Y-137620671D01*
X123451777Y-137701777D01*
X123370671Y-137755970D01*
X123275000Y-137775000D01*
X122725000Y-137775000D01*
X122629329Y-137755970D01*
X122548223Y-137701777D01*
X122494030Y-137620671D01*
X122475000Y-137525000D01*
X122475000Y-137125000D01*
X122494030Y-137029329D01*
X122548223Y-136948223D01*
X122629329Y-136894030D01*
X122725000Y-136875000D01*
X123275000Y-136875000D01*
G37*
G36*
X125650000Y-135225000D02*
X125755238Y-135245933D01*
X125844454Y-135305546D01*
X125904067Y-135394762D01*
X125925000Y-135500000D01*
X125925000Y-135950000D01*
X125904067Y-136055238D01*
X125844454Y-136144454D01*
X125755238Y-136204067D01*
X125650000Y-136225000D01*
X125150000Y-136225000D01*
X125044762Y-136204067D01*
X124955546Y-136144454D01*
X124895933Y-136055238D01*
X124875000Y-135950000D01*
X124875000Y-135500000D01*
X124895933Y-135394762D01*
X124955546Y-135305546D01*
X125044762Y-135245933D01*
X125150000Y-135225000D01*
X125650000Y-135225000D01*
G37*
G36*
X125650000Y-136775000D02*
X125755238Y-136795933D01*
X125844454Y-136855546D01*
X125904067Y-136944762D01*
X125925000Y-137050000D01*
X125925000Y-137500000D01*
X125904067Y-137605238D01*
X125844454Y-137694454D01*
X125755238Y-137754067D01*
X125650000Y-137775000D01*
X125150000Y-137775000D01*
X125044762Y-137754067D01*
X124955546Y-137694454D01*
X124895933Y-137605238D01*
X124875000Y-137500000D01*
X124875000Y-137050000D01*
X124895933Y-136944762D01*
X124955546Y-136855546D01*
X125044762Y-136795933D01*
X125150000Y-136775000D01*
X125650000Y-136775000D01*
G37*
G36*
X136500000Y-129050000D02*
X136547835Y-129059515D01*
X136588388Y-129086612D01*
X136615485Y-129127165D01*
X136625000Y-129175000D01*
X136625000Y-129325000D01*
X136615485Y-129372835D01*
X136588388Y-129413388D01*
X136547835Y-129440485D01*
X136500000Y-129450000D01*
X135175000Y-129450000D01*
X135127165Y-129440485D01*
X135086612Y-129413388D01*
X135059515Y-129372835D01*
X135050000Y-129325000D01*
X135050000Y-129175000D01*
X135059515Y-129127165D01*
X135086612Y-129086612D01*
X135127165Y-129059515D01*
X135175000Y-129050000D01*
X136500000Y-129050000D01*
G37*
G36*
X137325000Y-135375000D02*
X137372835Y-135384515D01*
X137413388Y-135411612D01*
X137440485Y-135452165D01*
X137450000Y-135500000D01*
X137450000Y-136825000D01*
X137440485Y-136872835D01*
X137413388Y-136913388D01*
X137372835Y-136940485D01*
X137325000Y-136950000D01*
X137175000Y-136950000D01*
X137127165Y-136940485D01*
X137086612Y-136913388D01*
X137059515Y-136872835D01*
X137050000Y-136825000D01*
X137050000Y-135500000D01*
X137059515Y-135452165D01*
X137086612Y-135411612D01*
X137127165Y-135384515D01*
X137175000Y-135375000D01*
X137325000Y-135375000D01*
G37*
G36*
X144825000Y-134550000D02*
X144872835Y-134559515D01*
X144913388Y-134586612D01*
X144940485Y-134627165D01*
X144950000Y-134675000D01*
X144950000Y-134825000D01*
X144940485Y-134872835D01*
X144913388Y-134913388D01*
X144872835Y-134940485D01*
X144825000Y-134950000D01*
X143500000Y-134950000D01*
X143452165Y-134940485D01*
X143411612Y-134913388D01*
X143384515Y-134872835D01*
X143375000Y-134825000D01*
X143375000Y-134675000D01*
X143384515Y-134627165D01*
X143411612Y-134586612D01*
X143452165Y-134559515D01*
X143500000Y-134550000D01*
X144825000Y-134550000D01*
G37*
G36*
X142825000Y-127050000D02*
X142872835Y-127059515D01*
X142913388Y-127086612D01*
X142940485Y-127127165D01*
X142950000Y-127175000D01*
X142950000Y-128500000D01*
X142940485Y-128547835D01*
X142913388Y-128588388D01*
X142872835Y-128615485D01*
X142825000Y-128625000D01*
X142675000Y-128625000D01*
X142627165Y-128615485D01*
X142586612Y-128588388D01*
X142559515Y-128547835D01*
X142550000Y-128500000D01*
X142550000Y-127175000D01*
X142559515Y-127127165D01*
X142586612Y-127086612D01*
X142627165Y-127059515D01*
X142675000Y-127050000D01*
X142825000Y-127050000D01*
G37*
G36*
X136500000Y-129550000D02*
X136547835Y-129559515D01*
X136588388Y-129586612D01*
X136615485Y-129627165D01*
X136625000Y-129675000D01*
X136625000Y-129825000D01*
X136615485Y-129872835D01*
X136588388Y-129913388D01*
X136547835Y-129940485D01*
X136500000Y-129950000D01*
X135175000Y-129950000D01*
X135127165Y-129940485D01*
X135086612Y-129913388D01*
X135059515Y-129872835D01*
X135050000Y-129825000D01*
X135050000Y-129675000D01*
X135059515Y-129627165D01*
X135086612Y-129586612D01*
X135127165Y-129559515D01*
X135175000Y-129550000D01*
X136500000Y-129550000D01*
G37*
G36*
X137825000Y-135375000D02*
X137872835Y-135384515D01*
X137913388Y-135411612D01*
X137940485Y-135452165D01*
X137950000Y-135500000D01*
X137950000Y-136825000D01*
X137940485Y-136872835D01*
X137913388Y-136913388D01*
X137872835Y-136940485D01*
X137825000Y-136950000D01*
X137675000Y-136950000D01*
X137627165Y-136940485D01*
X137586612Y-136913388D01*
X137559515Y-136872835D01*
X137550000Y-136825000D01*
X137550000Y-135500000D01*
X137559515Y-135452165D01*
X137586612Y-135411612D01*
X137627165Y-135384515D01*
X137675000Y-135375000D01*
X137825000Y-135375000D01*
G37*
G36*
X144825000Y-134050000D02*
X144872835Y-134059515D01*
X144913388Y-134086612D01*
X144940485Y-134127165D01*
X144950000Y-134175000D01*
X144950000Y-134325000D01*
X144940485Y-134372835D01*
X144913388Y-134413388D01*
X144872835Y-134440485D01*
X144825000Y-134450000D01*
X143500000Y-134450000D01*
X143452165Y-134440485D01*
X143411612Y-134413388D01*
X143384515Y-134372835D01*
X143375000Y-134325000D01*
X143375000Y-134175000D01*
X143384515Y-134127165D01*
X143411612Y-134086612D01*
X143452165Y-134059515D01*
X143500000Y-134050000D01*
X144825000Y-134050000D01*
G37*
G36*
X142325000Y-127050000D02*
X142372835Y-127059515D01*
X142413388Y-127086612D01*
X142440485Y-127127165D01*
X142450000Y-127175000D01*
X142450000Y-128500000D01*
X142440485Y-128547835D01*
X142413388Y-128588388D01*
X142372835Y-128615485D01*
X142325000Y-128625000D01*
X142175000Y-128625000D01*
X142127165Y-128615485D01*
X142086612Y-128588388D01*
X142059515Y-128547835D01*
X142050000Y-128500000D01*
X142050000Y-127175000D01*
X142059515Y-127127165D01*
X142086612Y-127086612D01*
X142127165Y-127059515D01*
X142175000Y-127050000D01*
X142325000Y-127050000D01*
G37*
G36*
X136500000Y-130050000D02*
X136547835Y-130059515D01*
X136588388Y-130086612D01*
X136615485Y-130127165D01*
X136625000Y-130175000D01*
X136625000Y-130325000D01*
X136615485Y-130372835D01*
X136588388Y-130413388D01*
X136547835Y-130440485D01*
X136500000Y-130450000D01*
X135175000Y-130450000D01*
X135127165Y-130440485D01*
X135086612Y-130413388D01*
X135059515Y-130372835D01*
X135050000Y-130325000D01*
X135050000Y-130175000D01*
X135059515Y-130127165D01*
X135086612Y-130086612D01*
X135127165Y-130059515D01*
X135175000Y-130050000D01*
X136500000Y-130050000D01*
G37*
G36*
X138325000Y-135375000D02*
X138372835Y-135384515D01*
X138413388Y-135411612D01*
X138440485Y-135452165D01*
X138450000Y-135500000D01*
X138450000Y-136825000D01*
X138440485Y-136872835D01*
X138413388Y-136913388D01*
X138372835Y-136940485D01*
X138325000Y-136950000D01*
X138175000Y-136950000D01*
X138127165Y-136940485D01*
X138086612Y-136913388D01*
X138059515Y-136872835D01*
X138050000Y-136825000D01*
X138050000Y-135500000D01*
X138059515Y-135452165D01*
X138086612Y-135411612D01*
X138127165Y-135384515D01*
X138175000Y-135375000D01*
X138325000Y-135375000D01*
G37*
G36*
X144825000Y-133550000D02*
X144872835Y-133559515D01*
X144913388Y-133586612D01*
X144940485Y-133627165D01*
X144950000Y-133675000D01*
X144950000Y-133825000D01*
X144940485Y-133872835D01*
X144913388Y-133913388D01*
X144872835Y-133940485D01*
X144825000Y-133950000D01*
X143500000Y-133950000D01*
X143452165Y-133940485D01*
X143411612Y-133913388D01*
X143384515Y-133872835D01*
X143375000Y-133825000D01*
X143375000Y-133675000D01*
X143384515Y-133627165D01*
X143411612Y-133586612D01*
X143452165Y-133559515D01*
X143500000Y-133550000D01*
X144825000Y-133550000D01*
G37*
G36*
X141825000Y-127050000D02*
X141872835Y-127059515D01*
X141913388Y-127086612D01*
X141940485Y-127127165D01*
X141950000Y-127175000D01*
X141950000Y-128500000D01*
X141940485Y-128547835D01*
X141913388Y-128588388D01*
X141872835Y-128615485D01*
X141825000Y-128625000D01*
X141675000Y-128625000D01*
X141627165Y-128615485D01*
X141586612Y-128588388D01*
X141559515Y-128547835D01*
X141550000Y-128500000D01*
X141550000Y-127175000D01*
X141559515Y-127127165D01*
X141586612Y-127086612D01*
X141627165Y-127059515D01*
X141675000Y-127050000D01*
X141825000Y-127050000D01*
G37*
G36*
X136500000Y-130550000D02*
X136547835Y-130559515D01*
X136588388Y-130586612D01*
X136615485Y-130627165D01*
X136625000Y-130675000D01*
X136625000Y-130825000D01*
X136615485Y-130872835D01*
X136588388Y-130913388D01*
X136547835Y-130940485D01*
X136500000Y-130950000D01*
X135175000Y-130950000D01*
X135127165Y-130940485D01*
X135086612Y-130913388D01*
X135059515Y-130872835D01*
X135050000Y-130825000D01*
X135050000Y-130675000D01*
X135059515Y-130627165D01*
X135086612Y-130586612D01*
X135127165Y-130559515D01*
X135175000Y-130550000D01*
X136500000Y-130550000D01*
G37*
G36*
X138825000Y-135375000D02*
X138872835Y-135384515D01*
X138913388Y-135411612D01*
X138940485Y-135452165D01*
X138950000Y-135500000D01*
X138950000Y-136825000D01*
X138940485Y-136872835D01*
X138913388Y-136913388D01*
X138872835Y-136940485D01*
X138825000Y-136950000D01*
X138675000Y-136950000D01*
X138627165Y-136940485D01*
X138586612Y-136913388D01*
X138559515Y-136872835D01*
X138550000Y-136825000D01*
X138550000Y-135500000D01*
X138559515Y-135452165D01*
X138586612Y-135411612D01*
X138627165Y-135384515D01*
X138675000Y-135375000D01*
X138825000Y-135375000D01*
G37*
G36*
X144825000Y-133050000D02*
X144872835Y-133059515D01*
X144913388Y-133086612D01*
X144940485Y-133127165D01*
X144950000Y-133175000D01*
X144950000Y-133325000D01*
X144940485Y-133372835D01*
X144913388Y-133413388D01*
X144872835Y-133440485D01*
X144825000Y-133450000D01*
X143500000Y-133450000D01*
X143452165Y-133440485D01*
X143411612Y-133413388D01*
X143384515Y-133372835D01*
X143375000Y-133325000D01*
X143375000Y-133175000D01*
X143384515Y-133127165D01*
X143411612Y-133086612D01*
X143452165Y-133059515D01*
X143500000Y-133050000D01*
X144825000Y-133050000D01*
G37*
G36*
X141325000Y-127050000D02*
X141372835Y-127059515D01*
X141413388Y-127086612D01*
X141440485Y-127127165D01*
X141450000Y-127175000D01*
X141450000Y-128500000D01*
X141440485Y-128547835D01*
X141413388Y-128588388D01*
X141372835Y-128615485D01*
X141325000Y-128625000D01*
X141175000Y-128625000D01*
X141127165Y-128615485D01*
X141086612Y-128588388D01*
X141059515Y-128547835D01*
X141050000Y-128500000D01*
X141050000Y-127175000D01*
X141059515Y-127127165D01*
X141086612Y-127086612D01*
X141127165Y-127059515D01*
X141175000Y-127050000D01*
X141325000Y-127050000D01*
G37*
G36*
X136500000Y-131050000D02*
X136547835Y-131059515D01*
X136588388Y-131086612D01*
X136615485Y-131127165D01*
X136625000Y-131175000D01*
X136625000Y-131325000D01*
X136615485Y-131372835D01*
X136588388Y-131413388D01*
X136547835Y-131440485D01*
X136500000Y-131450000D01*
X135175000Y-131450000D01*
X135127165Y-131440485D01*
X135086612Y-131413388D01*
X135059515Y-131372835D01*
X135050000Y-131325000D01*
X135050000Y-131175000D01*
X135059515Y-131127165D01*
X135086612Y-131086612D01*
X135127165Y-131059515D01*
X135175000Y-131050000D01*
X136500000Y-131050000D01*
G37*
G36*
X139325000Y-135375000D02*
X139372835Y-135384515D01*
X139413388Y-135411612D01*
X139440485Y-135452165D01*
X139450000Y-135500000D01*
X139450000Y-136825000D01*
X139440485Y-136872835D01*
X139413388Y-136913388D01*
X139372835Y-136940485D01*
X139325000Y-136950000D01*
X139175000Y-136950000D01*
X139127165Y-136940485D01*
X139086612Y-136913388D01*
X139059515Y-136872835D01*
X139050000Y-136825000D01*
X139050000Y-135500000D01*
X139059515Y-135452165D01*
X139086612Y-135411612D01*
X139127165Y-135384515D01*
X139175000Y-135375000D01*
X139325000Y-135375000D01*
G37*
G36*
X144825000Y-132550000D02*
X144872835Y-132559515D01*
X144913388Y-132586612D01*
X144940485Y-132627165D01*
X144950000Y-132675000D01*
X144950000Y-132825000D01*
X144940485Y-132872835D01*
X144913388Y-132913388D01*
X144872835Y-132940485D01*
X144825000Y-132950000D01*
X143500000Y-132950000D01*
X143452165Y-132940485D01*
X143411612Y-132913388D01*
X143384515Y-132872835D01*
X143375000Y-132825000D01*
X143375000Y-132675000D01*
X143384515Y-132627165D01*
X143411612Y-132586612D01*
X143452165Y-132559515D01*
X143500000Y-132550000D01*
X144825000Y-132550000D01*
G37*
G36*
X140825000Y-127050000D02*
X140872835Y-127059515D01*
X140913388Y-127086612D01*
X140940485Y-127127165D01*
X140950000Y-127175000D01*
X140950000Y-128500000D01*
X140940485Y-128547835D01*
X140913388Y-128588388D01*
X140872835Y-128615485D01*
X140825000Y-128625000D01*
X140675000Y-128625000D01*
X140627165Y-128615485D01*
X140586612Y-128588388D01*
X140559515Y-128547835D01*
X140550000Y-128500000D01*
X140550000Y-127175000D01*
X140559515Y-127127165D01*
X140586612Y-127086612D01*
X140627165Y-127059515D01*
X140675000Y-127050000D01*
X140825000Y-127050000D01*
G37*
G36*
X136500000Y-131550000D02*
X136547835Y-131559515D01*
X136588388Y-131586612D01*
X136615485Y-131627165D01*
X136625000Y-131675000D01*
X136625000Y-131825000D01*
X136615485Y-131872835D01*
X136588388Y-131913388D01*
X136547835Y-131940485D01*
X136500000Y-131950000D01*
X135175000Y-131950000D01*
X135127165Y-131940485D01*
X135086612Y-131913388D01*
X135059515Y-131872835D01*
X135050000Y-131825000D01*
X135050000Y-131675000D01*
X135059515Y-131627165D01*
X135086612Y-131586612D01*
X135127165Y-131559515D01*
X135175000Y-131550000D01*
X136500000Y-131550000D01*
G37*
G36*
X139825000Y-135375000D02*
X139872835Y-135384515D01*
X139913388Y-135411612D01*
X139940485Y-135452165D01*
X139950000Y-135500000D01*
X139950000Y-136825000D01*
X139940485Y-136872835D01*
X139913388Y-136913388D01*
X139872835Y-136940485D01*
X139825000Y-136950000D01*
X139675000Y-136950000D01*
X139627165Y-136940485D01*
X139586612Y-136913388D01*
X139559515Y-136872835D01*
X139550000Y-136825000D01*
X139550000Y-135500000D01*
X139559515Y-135452165D01*
X139586612Y-135411612D01*
X139627165Y-135384515D01*
X139675000Y-135375000D01*
X139825000Y-135375000D01*
G37*
G36*
X144825000Y-132050000D02*
X144872835Y-132059515D01*
X144913388Y-132086612D01*
X144940485Y-132127165D01*
X144950000Y-132175000D01*
X144950000Y-132325000D01*
X144940485Y-132372835D01*
X144913388Y-132413388D01*
X144872835Y-132440485D01*
X144825000Y-132450000D01*
X143500000Y-132450000D01*
X143452165Y-132440485D01*
X143411612Y-132413388D01*
X143384515Y-132372835D01*
X143375000Y-132325000D01*
X143375000Y-132175000D01*
X143384515Y-132127165D01*
X143411612Y-132086612D01*
X143452165Y-132059515D01*
X143500000Y-132050000D01*
X144825000Y-132050000D01*
G37*
G36*
X140325000Y-127050000D02*
X140372835Y-127059515D01*
X140413388Y-127086612D01*
X140440485Y-127127165D01*
X140450000Y-127175000D01*
X140450000Y-128500000D01*
X140440485Y-128547835D01*
X140413388Y-128588388D01*
X140372835Y-128615485D01*
X140325000Y-128625000D01*
X140175000Y-128625000D01*
X140127165Y-128615485D01*
X140086612Y-128588388D01*
X140059515Y-128547835D01*
X140050000Y-128500000D01*
X140050000Y-127175000D01*
X140059515Y-127127165D01*
X140086612Y-127086612D01*
X140127165Y-127059515D01*
X140175000Y-127050000D01*
X140325000Y-127050000D01*
G37*
G36*
X136500000Y-132050000D02*
X136547835Y-132059515D01*
X136588388Y-132086612D01*
X136615485Y-132127165D01*
X136625000Y-132175000D01*
X136625000Y-132325000D01*
X136615485Y-132372835D01*
X136588388Y-132413388D01*
X136547835Y-132440485D01*
X136500000Y-132450000D01*
X135175000Y-132450000D01*
X135127165Y-132440485D01*
X135086612Y-132413388D01*
X135059515Y-132372835D01*
X135050000Y-132325000D01*
X135050000Y-132175000D01*
X135059515Y-132127165D01*
X135086612Y-132086612D01*
X135127165Y-132059515D01*
X135175000Y-132050000D01*
X136500000Y-132050000D01*
G37*
G36*
X140325000Y-135375000D02*
X140372835Y-135384515D01*
X140413388Y-135411612D01*
X140440485Y-135452165D01*
X140450000Y-135500000D01*
X140450000Y-136825000D01*
X140440485Y-136872835D01*
X140413388Y-136913388D01*
X140372835Y-136940485D01*
X140325000Y-136950000D01*
X140175000Y-136950000D01*
X140127165Y-136940485D01*
X140086612Y-136913388D01*
X140059515Y-136872835D01*
X140050000Y-136825000D01*
X140050000Y-135500000D01*
X140059515Y-135452165D01*
X140086612Y-135411612D01*
X140127165Y-135384515D01*
X140175000Y-135375000D01*
X140325000Y-135375000D01*
G37*
G36*
X144825000Y-131550000D02*
X144872835Y-131559515D01*
X144913388Y-131586612D01*
X144940485Y-131627165D01*
X144950000Y-131675000D01*
X144950000Y-131825000D01*
X144940485Y-131872835D01*
X144913388Y-131913388D01*
X144872835Y-131940485D01*
X144825000Y-131950000D01*
X143500000Y-131950000D01*
X143452165Y-131940485D01*
X143411612Y-131913388D01*
X143384515Y-131872835D01*
X143375000Y-131825000D01*
X143375000Y-131675000D01*
X143384515Y-131627165D01*
X143411612Y-131586612D01*
X143452165Y-131559515D01*
X143500000Y-131550000D01*
X144825000Y-131550000D01*
G37*
G36*
X139825000Y-127050000D02*
X139872835Y-127059515D01*
X139913388Y-127086612D01*
X139940485Y-127127165D01*
X139950000Y-127175000D01*
X139950000Y-128500000D01*
X139940485Y-128547835D01*
X139913388Y-128588388D01*
X139872835Y-128615485D01*
X139825000Y-128625000D01*
X139675000Y-128625000D01*
X139627165Y-128615485D01*
X139586612Y-128588388D01*
X139559515Y-128547835D01*
X139550000Y-128500000D01*
X139550000Y-127175000D01*
X139559515Y-127127165D01*
X139586612Y-127086612D01*
X139627165Y-127059515D01*
X139675000Y-127050000D01*
X139825000Y-127050000D01*
G37*
G36*
X136500000Y-132550000D02*
X136547835Y-132559515D01*
X136588388Y-132586612D01*
X136615485Y-132627165D01*
X136625000Y-132675000D01*
X136625000Y-132825000D01*
X136615485Y-132872835D01*
X136588388Y-132913388D01*
X136547835Y-132940485D01*
X136500000Y-132950000D01*
X135175000Y-132950000D01*
X135127165Y-132940485D01*
X135086612Y-132913388D01*
X135059515Y-132872835D01*
X135050000Y-132825000D01*
X135050000Y-132675000D01*
X135059515Y-132627165D01*
X135086612Y-132586612D01*
X135127165Y-132559515D01*
X135175000Y-132550000D01*
X136500000Y-132550000D01*
G37*
G36*
X140825000Y-135375000D02*
X140872835Y-135384515D01*
X140913388Y-135411612D01*
X140940485Y-135452165D01*
X140950000Y-135500000D01*
X140950000Y-136825000D01*
X140940485Y-136872835D01*
X140913388Y-136913388D01*
X140872835Y-136940485D01*
X140825000Y-136950000D01*
X140675000Y-136950000D01*
X140627165Y-136940485D01*
X140586612Y-136913388D01*
X140559515Y-136872835D01*
X140550000Y-136825000D01*
X140550000Y-135500000D01*
X140559515Y-135452165D01*
X140586612Y-135411612D01*
X140627165Y-135384515D01*
X140675000Y-135375000D01*
X140825000Y-135375000D01*
G37*
G36*
X144825000Y-131050000D02*
X144872835Y-131059515D01*
X144913388Y-131086612D01*
X144940485Y-131127165D01*
X144950000Y-131175000D01*
X144950000Y-131325000D01*
X144940485Y-131372835D01*
X144913388Y-131413388D01*
X144872835Y-131440485D01*
X144825000Y-131450000D01*
X143500000Y-131450000D01*
X143452165Y-131440485D01*
X143411612Y-131413388D01*
X143384515Y-131372835D01*
X143375000Y-131325000D01*
X143375000Y-131175000D01*
X143384515Y-131127165D01*
X143411612Y-131086612D01*
X143452165Y-131059515D01*
X143500000Y-131050000D01*
X144825000Y-131050000D01*
G37*
G36*
X139325000Y-127050000D02*
X139372835Y-127059515D01*
X139413388Y-127086612D01*
X139440485Y-127127165D01*
X139450000Y-127175000D01*
X139450000Y-128500000D01*
X139440485Y-128547835D01*
X139413388Y-128588388D01*
X139372835Y-128615485D01*
X139325000Y-128625000D01*
X139175000Y-128625000D01*
X139127165Y-128615485D01*
X139086612Y-128588388D01*
X139059515Y-128547835D01*
X139050000Y-128500000D01*
X139050000Y-127175000D01*
X139059515Y-127127165D01*
X139086612Y-127086612D01*
X139127165Y-127059515D01*
X139175000Y-127050000D01*
X139325000Y-127050000D01*
G37*
G36*
X136500000Y-133050000D02*
X136547835Y-133059515D01*
X136588388Y-133086612D01*
X136615485Y-133127165D01*
X136625000Y-133175000D01*
X136625000Y-133325000D01*
X136615485Y-133372835D01*
X136588388Y-133413388D01*
X136547835Y-133440485D01*
X136500000Y-133450000D01*
X135175000Y-133450000D01*
X135127165Y-133440485D01*
X135086612Y-133413388D01*
X135059515Y-133372835D01*
X135050000Y-133325000D01*
X135050000Y-133175000D01*
X135059515Y-133127165D01*
X135086612Y-133086612D01*
X135127165Y-133059515D01*
X135175000Y-133050000D01*
X136500000Y-133050000D01*
G37*
G36*
X141325000Y-135375000D02*
X141372835Y-135384515D01*
X141413388Y-135411612D01*
X141440485Y-135452165D01*
X141450000Y-135500000D01*
X141450000Y-136825000D01*
X141440485Y-136872835D01*
X141413388Y-136913388D01*
X141372835Y-136940485D01*
X141325000Y-136950000D01*
X141175000Y-136950000D01*
X141127165Y-136940485D01*
X141086612Y-136913388D01*
X141059515Y-136872835D01*
X141050000Y-136825000D01*
X141050000Y-135500000D01*
X141059515Y-135452165D01*
X141086612Y-135411612D01*
X141127165Y-135384515D01*
X141175000Y-135375000D01*
X141325000Y-135375000D01*
G37*
G36*
X144825000Y-130550000D02*
X144872835Y-130559515D01*
X144913388Y-130586612D01*
X144940485Y-130627165D01*
X144950000Y-130675000D01*
X144950000Y-130825000D01*
X144940485Y-130872835D01*
X144913388Y-130913388D01*
X144872835Y-130940485D01*
X144825000Y-130950000D01*
X143500000Y-130950000D01*
X143452165Y-130940485D01*
X143411612Y-130913388D01*
X143384515Y-130872835D01*
X143375000Y-130825000D01*
X143375000Y-130675000D01*
X143384515Y-130627165D01*
X143411612Y-130586612D01*
X143452165Y-130559515D01*
X143500000Y-130550000D01*
X144825000Y-130550000D01*
G37*
G36*
X138825000Y-127050000D02*
X138872835Y-127059515D01*
X138913388Y-127086612D01*
X138940485Y-127127165D01*
X138950000Y-127175000D01*
X138950000Y-128500000D01*
X138940485Y-128547835D01*
X138913388Y-128588388D01*
X138872835Y-128615485D01*
X138825000Y-128625000D01*
X138675000Y-128625000D01*
X138627165Y-128615485D01*
X138586612Y-128588388D01*
X138559515Y-128547835D01*
X138550000Y-128500000D01*
X138550000Y-127175000D01*
X138559515Y-127127165D01*
X138586612Y-127086612D01*
X138627165Y-127059515D01*
X138675000Y-127050000D01*
X138825000Y-127050000D01*
G37*
G36*
X136500000Y-133550000D02*
X136547835Y-133559515D01*
X136588388Y-133586612D01*
X136615485Y-133627165D01*
X136625000Y-133675000D01*
X136625000Y-133825000D01*
X136615485Y-133872835D01*
X136588388Y-133913388D01*
X136547835Y-133940485D01*
X136500000Y-133950000D01*
X135175000Y-133950000D01*
X135127165Y-133940485D01*
X135086612Y-133913388D01*
X135059515Y-133872835D01*
X135050000Y-133825000D01*
X135050000Y-133675000D01*
X135059515Y-133627165D01*
X135086612Y-133586612D01*
X135127165Y-133559515D01*
X135175000Y-133550000D01*
X136500000Y-133550000D01*
G37*
G36*
X141825000Y-135375000D02*
X141872835Y-135384515D01*
X141913388Y-135411612D01*
X141940485Y-135452165D01*
X141950000Y-135500000D01*
X141950000Y-136825000D01*
X141940485Y-136872835D01*
X141913388Y-136913388D01*
X141872835Y-136940485D01*
X141825000Y-136950000D01*
X141675000Y-136950000D01*
X141627165Y-136940485D01*
X141586612Y-136913388D01*
X141559515Y-136872835D01*
X141550000Y-136825000D01*
X141550000Y-135500000D01*
X141559515Y-135452165D01*
X141586612Y-135411612D01*
X141627165Y-135384515D01*
X141675000Y-135375000D01*
X141825000Y-135375000D01*
G37*
G36*
X144825000Y-130050000D02*
X144872835Y-130059515D01*
X144913388Y-130086612D01*
X144940485Y-130127165D01*
X144950000Y-130175000D01*
X144950000Y-130325000D01*
X144940485Y-130372835D01*
X144913388Y-130413388D01*
X144872835Y-130440485D01*
X144825000Y-130450000D01*
X143500000Y-130450000D01*
X143452165Y-130440485D01*
X143411612Y-130413388D01*
X143384515Y-130372835D01*
X143375000Y-130325000D01*
X143375000Y-130175000D01*
X143384515Y-130127165D01*
X143411612Y-130086612D01*
X143452165Y-130059515D01*
X143500000Y-130050000D01*
X144825000Y-130050000D01*
G37*
G36*
X138325000Y-127050000D02*
X138372835Y-127059515D01*
X138413388Y-127086612D01*
X138440485Y-127127165D01*
X138450000Y-127175000D01*
X138450000Y-128500000D01*
X138440485Y-128547835D01*
X138413388Y-128588388D01*
X138372835Y-128615485D01*
X138325000Y-128625000D01*
X138175000Y-128625000D01*
X138127165Y-128615485D01*
X138086612Y-128588388D01*
X138059515Y-128547835D01*
X138050000Y-128500000D01*
X138050000Y-127175000D01*
X138059515Y-127127165D01*
X138086612Y-127086612D01*
X138127165Y-127059515D01*
X138175000Y-127050000D01*
X138325000Y-127050000D01*
G37*
G36*
X136500000Y-134050000D02*
X136547835Y-134059515D01*
X136588388Y-134086612D01*
X136615485Y-134127165D01*
X136625000Y-134175000D01*
X136625000Y-134325000D01*
X136615485Y-134372835D01*
X136588388Y-134413388D01*
X136547835Y-134440485D01*
X136500000Y-134450000D01*
X135175000Y-134450000D01*
X135127165Y-134440485D01*
X135086612Y-134413388D01*
X135059515Y-134372835D01*
X135050000Y-134325000D01*
X135050000Y-134175000D01*
X135059515Y-134127165D01*
X135086612Y-134086612D01*
X135127165Y-134059515D01*
X135175000Y-134050000D01*
X136500000Y-134050000D01*
G37*
G36*
X142325000Y-135375000D02*
X142372835Y-135384515D01*
X142413388Y-135411612D01*
X142440485Y-135452165D01*
X142450000Y-135500000D01*
X142450000Y-136825000D01*
X142440485Y-136872835D01*
X142413388Y-136913388D01*
X142372835Y-136940485D01*
X142325000Y-136950000D01*
X142175000Y-136950000D01*
X142127165Y-136940485D01*
X142086612Y-136913388D01*
X142059515Y-136872835D01*
X142050000Y-136825000D01*
X142050000Y-135500000D01*
X142059515Y-135452165D01*
X142086612Y-135411612D01*
X142127165Y-135384515D01*
X142175000Y-135375000D01*
X142325000Y-135375000D01*
G37*
G36*
X144825000Y-129550000D02*
X144872835Y-129559515D01*
X144913388Y-129586612D01*
X144940485Y-129627165D01*
X144950000Y-129675000D01*
X144950000Y-129825000D01*
X144940485Y-129872835D01*
X144913388Y-129913388D01*
X144872835Y-129940485D01*
X144825000Y-129950000D01*
X143500000Y-129950000D01*
X143452165Y-129940485D01*
X143411612Y-129913388D01*
X143384515Y-129872835D01*
X143375000Y-129825000D01*
X143375000Y-129675000D01*
X143384515Y-129627165D01*
X143411612Y-129586612D01*
X143452165Y-129559515D01*
X143500000Y-129550000D01*
X144825000Y-129550000D01*
G37*
G36*
X137825000Y-127050000D02*
X137872835Y-127059515D01*
X137913388Y-127086612D01*
X137940485Y-127127165D01*
X137950000Y-127175000D01*
X137950000Y-128500000D01*
X137940485Y-128547835D01*
X137913388Y-128588388D01*
X137872835Y-128615485D01*
X137825000Y-128625000D01*
X137675000Y-128625000D01*
X137627165Y-128615485D01*
X137586612Y-128588388D01*
X137559515Y-128547835D01*
X137550000Y-128500000D01*
X137550000Y-127175000D01*
X137559515Y-127127165D01*
X137586612Y-127086612D01*
X137627165Y-127059515D01*
X137675000Y-127050000D01*
X137825000Y-127050000D01*
G37*
G36*
X136500000Y-134550000D02*
X136547835Y-134559515D01*
X136588388Y-134586612D01*
X136615485Y-134627165D01*
X136625000Y-134675000D01*
X136625000Y-134825000D01*
X136615485Y-134872835D01*
X136588388Y-134913388D01*
X136547835Y-134940485D01*
X136500000Y-134950000D01*
X135175000Y-134950000D01*
X135127165Y-134940485D01*
X135086612Y-134913388D01*
X135059515Y-134872835D01*
X135050000Y-134825000D01*
X135050000Y-134675000D01*
X135059515Y-134627165D01*
X135086612Y-134586612D01*
X135127165Y-134559515D01*
X135175000Y-134550000D01*
X136500000Y-134550000D01*
G37*
G36*
X142825000Y-135375000D02*
X142872835Y-135384515D01*
X142913388Y-135411612D01*
X142940485Y-135452165D01*
X142950000Y-135500000D01*
X142950000Y-136825000D01*
X142940485Y-136872835D01*
X142913388Y-136913388D01*
X142872835Y-136940485D01*
X142825000Y-136950000D01*
X142675000Y-136950000D01*
X142627165Y-136940485D01*
X142586612Y-136913388D01*
X142559515Y-136872835D01*
X142550000Y-136825000D01*
X142550000Y-135500000D01*
X142559515Y-135452165D01*
X142586612Y-135411612D01*
X142627165Y-135384515D01*
X142675000Y-135375000D01*
X142825000Y-135375000D01*
G37*
G36*
X144825000Y-129050000D02*
X144872835Y-129059515D01*
X144913388Y-129086612D01*
X144940485Y-129127165D01*
X144950000Y-129175000D01*
X144950000Y-129325000D01*
X144940485Y-129372835D01*
X144913388Y-129413388D01*
X144872835Y-129440485D01*
X144825000Y-129450000D01*
X143500000Y-129450000D01*
X143452165Y-129440485D01*
X143411612Y-129413388D01*
X143384515Y-129372835D01*
X143375000Y-129325000D01*
X143375000Y-129175000D01*
X143384515Y-129127165D01*
X143411612Y-129086612D01*
X143452165Y-129059515D01*
X143500000Y-129050000D01*
X144825000Y-129050000D01*
G37*
G36*
X137325000Y-127050000D02*
X137372835Y-127059515D01*
X137413388Y-127086612D01*
X137440485Y-127127165D01*
X137450000Y-127175000D01*
X137450000Y-128500000D01*
X137440485Y-128547835D01*
X137413388Y-128588388D01*
X137372835Y-128615485D01*
X137325000Y-128625000D01*
X137175000Y-128625000D01*
X137127165Y-128615485D01*
X137086612Y-128588388D01*
X137059515Y-128547835D01*
X137050000Y-128500000D01*
X137050000Y-127175000D01*
X137059515Y-127127165D01*
X137086612Y-127086612D01*
X137127165Y-127059515D01*
X137175000Y-127050000D01*
X137325000Y-127050000D01*
G37*
G36*
X136450000Y-125175000D02*
X136555238Y-125195933D01*
X136644454Y-125255546D01*
X136704067Y-125344762D01*
X136725000Y-125450000D01*
X136725000Y-125900000D01*
X136704067Y-126005238D01*
X136644454Y-126094454D01*
X136555238Y-126154067D01*
X136450000Y-126175000D01*
X135950000Y-126175000D01*
X135844762Y-126154067D01*
X135755546Y-126094454D01*
X135695933Y-126005238D01*
X135675000Y-125900000D01*
X135675000Y-125450000D01*
X135695933Y-125344762D01*
X135755546Y-125255546D01*
X135844762Y-125195933D01*
X135950000Y-125175000D01*
X136450000Y-125175000D01*
G37*
G36*
X136450000Y-123625000D02*
X136555238Y-123645933D01*
X136644454Y-123705546D01*
X136704067Y-123794762D01*
X136725000Y-123900000D01*
X136725000Y-124350000D01*
X136704067Y-124455238D01*
X136644454Y-124544454D01*
X136555238Y-124604067D01*
X136450000Y-124625000D01*
X135950000Y-124625000D01*
X135844762Y-124604067D01*
X135755546Y-124544454D01*
X135695933Y-124455238D01*
X135675000Y-124350000D01*
X135675000Y-123900000D01*
X135695933Y-123794762D01*
X135755546Y-123705546D01*
X135844762Y-123645933D01*
X135950000Y-123625000D01*
X136450000Y-123625000D01*
G37*
G36*
X147850000Y-127875000D02*
X147955238Y-127895933D01*
X148044454Y-127955546D01*
X148104067Y-128044762D01*
X148125000Y-128150000D01*
X148125000Y-128600000D01*
X148104067Y-128705238D01*
X148044454Y-128794454D01*
X147955238Y-128854067D01*
X147850000Y-128875000D01*
X147350000Y-128875000D01*
X147244762Y-128854067D01*
X147155546Y-128794454D01*
X147095933Y-128705238D01*
X147075000Y-128600000D01*
X147075000Y-128150000D01*
X147095933Y-128044762D01*
X147155546Y-127955546D01*
X147244762Y-127895933D01*
X147350000Y-127875000D01*
X147850000Y-127875000D01*
G37*
G36*
X147850000Y-126325000D02*
X147955238Y-126345933D01*
X148044454Y-126405546D01*
X148104067Y-126494762D01*
X148125000Y-126600000D01*
X148125000Y-127050000D01*
X148104067Y-127155238D01*
X148044454Y-127244454D01*
X147955238Y-127304067D01*
X147850000Y-127325000D01*
X147350000Y-127325000D01*
X147244762Y-127304067D01*
X147155546Y-127244454D01*
X147095933Y-127155238D01*
X147075000Y-127050000D01*
X147075000Y-126600000D01*
X147095933Y-126494762D01*
X147155546Y-126405546D01*
X147244762Y-126345933D01*
X147350000Y-126325000D01*
X147850000Y-126325000D01*
G37*
G36*
X145450000Y-139675000D02*
X145555238Y-139695933D01*
X145644454Y-139755546D01*
X145704067Y-139844762D01*
X145725000Y-139950000D01*
X145725000Y-140400000D01*
X145704067Y-140505238D01*
X145644454Y-140594454D01*
X145555238Y-140654067D01*
X145450000Y-140675000D01*
X144950000Y-140675000D01*
X144844762Y-140654067D01*
X144755546Y-140594454D01*
X144695933Y-140505238D01*
X144675000Y-140400000D01*
X144675000Y-139950000D01*
X144695933Y-139844762D01*
X144755546Y-139755546D01*
X144844762Y-139695933D01*
X144950000Y-139675000D01*
X145450000Y-139675000D01*
G37*
G36*
X145450000Y-138125000D02*
X145555238Y-138145933D01*
X145644454Y-138205546D01*
X145704067Y-138294762D01*
X145725000Y-138400000D01*
X145725000Y-138850000D01*
X145704067Y-138955238D01*
X145644454Y-139044454D01*
X145555238Y-139104067D01*
X145450000Y-139125000D01*
X144950000Y-139125000D01*
X144844762Y-139104067D01*
X144755546Y-139044454D01*
X144695933Y-138955238D01*
X144675000Y-138850000D01*
X144675000Y-138400000D01*
X144695933Y-138294762D01*
X144755546Y-138205546D01*
X144844762Y-138145933D01*
X144950000Y-138125000D01*
X145450000Y-138125000D01*
G37*
G36*
X147300000Y-123225000D02*
X147414805Y-123247836D01*
X147512132Y-123312868D01*
X147577164Y-123410195D01*
X147600000Y-123525000D01*
X147600000Y-124475000D01*
X147577164Y-124589805D01*
X147512132Y-124687132D01*
X147414805Y-124752164D01*
X147300000Y-124775000D01*
X146800000Y-124775000D01*
X146685195Y-124752164D01*
X146587868Y-124687132D01*
X146522836Y-124589805D01*
X146500000Y-124475000D01*
X146500000Y-123525000D01*
X146522836Y-123410195D01*
X146587868Y-123312868D01*
X146685195Y-123247836D01*
X146800000Y-123225000D01*
X147300000Y-123225000D01*
G37*
G36*
X149200000Y-123225000D02*
X149314805Y-123247836D01*
X149412132Y-123312868D01*
X149477164Y-123410195D01*
X149500000Y-123525000D01*
X149500000Y-124475000D01*
X149477164Y-124589805D01*
X149412132Y-124687132D01*
X149314805Y-124752164D01*
X149200000Y-124775000D01*
X148700000Y-124775000D01*
X148585195Y-124752164D01*
X148487868Y-124687132D01*
X148422836Y-124589805D01*
X148400000Y-124475000D01*
X148400000Y-123525000D01*
X148422836Y-123410195D01*
X148487868Y-123312868D01*
X148585195Y-123247836D01*
X148700000Y-123225000D01*
X149200000Y-123225000D01*
G37*
G36*
X134650000Y-125175000D02*
X134755238Y-125195933D01*
X134844454Y-125255546D01*
X134904067Y-125344762D01*
X134925000Y-125450000D01*
X134925000Y-125900000D01*
X134904067Y-126005238D01*
X134844454Y-126094454D01*
X134755238Y-126154067D01*
X134650000Y-126175000D01*
X134150000Y-126175000D01*
X134044762Y-126154067D01*
X133955546Y-126094454D01*
X133895933Y-126005238D01*
X133875000Y-125900000D01*
X133875000Y-125450000D01*
X133895933Y-125344762D01*
X133955546Y-125255546D01*
X134044762Y-125195933D01*
X134150000Y-125175000D01*
X134650000Y-125175000D01*
G37*
G36*
X134650000Y-123625000D02*
X134755238Y-123645933D01*
X134844454Y-123705546D01*
X134904067Y-123794762D01*
X134925000Y-123900000D01*
X134925000Y-124350000D01*
X134904067Y-124455238D01*
X134844454Y-124544454D01*
X134755238Y-124604067D01*
X134650000Y-124625000D01*
X134150000Y-124625000D01*
X134044762Y-124604067D01*
X133955546Y-124544454D01*
X133895933Y-124455238D01*
X133875000Y-124350000D01*
X133875000Y-123900000D01*
X133895933Y-123794762D01*
X133955546Y-123705546D01*
X134044762Y-123645933D01*
X134150000Y-123625000D01*
X134650000Y-123625000D01*
G37*
G36*
X135831250Y-140075000D02*
X135934096Y-140095457D01*
X136021285Y-140153715D01*
X136079543Y-140240904D01*
X136100000Y-140343750D01*
X136100000Y-140856250D01*
X136079543Y-140959096D01*
X136021285Y-141046285D01*
X135934096Y-141104543D01*
X135831250Y-141125000D01*
X135393750Y-141125000D01*
X135290904Y-141104543D01*
X135203715Y-141046285D01*
X135145457Y-140959096D01*
X135125000Y-140856250D01*
X135125000Y-140343750D01*
X135145457Y-140240904D01*
X135203715Y-140153715D01*
X135290904Y-140095457D01*
X135393750Y-140075000D01*
X135831250Y-140075000D01*
G37*
G36*
X137406250Y-140075000D02*
X137509096Y-140095457D01*
X137596285Y-140153715D01*
X137654543Y-140240904D01*
X137675000Y-140343750D01*
X137675000Y-140856250D01*
X137654543Y-140959096D01*
X137596285Y-141046285D01*
X137509096Y-141104543D01*
X137406250Y-141125000D01*
X136968750Y-141125000D01*
X136865904Y-141104543D01*
X136778715Y-141046285D01*
X136720457Y-140959096D01*
X136700000Y-140856250D01*
X136700000Y-140343750D01*
X136720457Y-140240904D01*
X136778715Y-140153715D01*
X136865904Y-140095457D01*
X136968750Y-140075000D01*
X137406250Y-140075000D01*
G37*
G36*
X135850000Y-142075000D02*
X135955238Y-142095933D01*
X136044454Y-142155546D01*
X136104067Y-142244762D01*
X136125000Y-142350000D01*
X136125000Y-142850000D01*
X136104067Y-142955238D01*
X136044454Y-143044454D01*
X135955238Y-143104067D01*
X135850000Y-143125000D01*
X135400000Y-143125000D01*
X135294762Y-143104067D01*
X135205546Y-143044454D01*
X135145933Y-142955238D01*
X135125000Y-142850000D01*
X135125000Y-142350000D01*
X135145933Y-142244762D01*
X135205546Y-142155546D01*
X135294762Y-142095933D01*
X135400000Y-142075000D01*
X135850000Y-142075000D01*
G37*
G36*
X137400000Y-142075000D02*
X137505238Y-142095933D01*
X137594454Y-142155546D01*
X137654067Y-142244762D01*
X137675000Y-142350000D01*
X137675000Y-142850000D01*
X137654067Y-142955238D01*
X137594454Y-143044454D01*
X137505238Y-143104067D01*
X137400000Y-143125000D01*
X136950000Y-143125000D01*
X136844762Y-143104067D01*
X136755546Y-143044454D01*
X136695933Y-142955238D01*
X136675000Y-142850000D01*
X136675000Y-142350000D01*
X136695933Y-142244762D01*
X136755546Y-142155546D01*
X136844762Y-142095933D01*
X136950000Y-142075000D01*
X137400000Y-142075000D01*
G37*
G36*
X139450000Y-139975000D02*
X139555238Y-139995933D01*
X139644454Y-140055546D01*
X139704067Y-140144762D01*
X139725000Y-140250000D01*
X139725000Y-140700000D01*
X139704067Y-140805238D01*
X139644454Y-140894454D01*
X139555238Y-140954067D01*
X139450000Y-140975000D01*
X138950000Y-140975000D01*
X138844762Y-140954067D01*
X138755546Y-140894454D01*
X138695933Y-140805238D01*
X138675000Y-140700000D01*
X138675000Y-140250000D01*
X138695933Y-140144762D01*
X138755546Y-140055546D01*
X138844762Y-139995933D01*
X138950000Y-139975000D01*
X139450000Y-139975000D01*
G37*
G36*
X139450000Y-138425000D02*
X139555238Y-138445933D01*
X139644454Y-138505546D01*
X139704067Y-138594762D01*
X139725000Y-138700000D01*
X139725000Y-139150000D01*
X139704067Y-139255238D01*
X139644454Y-139344454D01*
X139555238Y-139404067D01*
X139450000Y-139425000D01*
X138950000Y-139425000D01*
X138844762Y-139404067D01*
X138755546Y-139344454D01*
X138695933Y-139255238D01*
X138675000Y-139150000D01*
X138675000Y-138700000D01*
X138695933Y-138594762D01*
X138755546Y-138505546D01*
X138844762Y-138445933D01*
X138950000Y-138425000D01*
X139450000Y-138425000D01*
G37*
G36*
X141250000Y-139975000D02*
X141355238Y-139995933D01*
X141444454Y-140055546D01*
X141504067Y-140144762D01*
X141525000Y-140250000D01*
X141525000Y-140700000D01*
X141504067Y-140805238D01*
X141444454Y-140894454D01*
X141355238Y-140954067D01*
X141250000Y-140975000D01*
X140750000Y-140975000D01*
X140644762Y-140954067D01*
X140555546Y-140894454D01*
X140495933Y-140805238D01*
X140475000Y-140700000D01*
X140475000Y-140250000D01*
X140495933Y-140144762D01*
X140555546Y-140055546D01*
X140644762Y-139995933D01*
X140750000Y-139975000D01*
X141250000Y-139975000D01*
G37*
G36*
X141250000Y-138425000D02*
X141355238Y-138445933D01*
X141444454Y-138505546D01*
X141504067Y-138594762D01*
X141525000Y-138700000D01*
X141525000Y-139150000D01*
X141504067Y-139255238D01*
X141444454Y-139344454D01*
X141355238Y-139404067D01*
X141250000Y-139425000D01*
X140750000Y-139425000D01*
X140644762Y-139404067D01*
X140555546Y-139344454D01*
X140495933Y-139255238D01*
X140475000Y-139150000D01*
X140475000Y-138700000D01*
X140495933Y-138594762D01*
X140555546Y-138505546D01*
X140644762Y-138445933D01*
X140750000Y-138425000D01*
X141250000Y-138425000D01*
G37*
G36*
X131950000Y-131000000D02*
X131969134Y-131003806D01*
X131985355Y-131014645D01*
X131996194Y-131030866D01*
X132000000Y-131050000D01*
X132000000Y-132450000D01*
X131996194Y-132469134D01*
X131985355Y-132485355D01*
X131969134Y-132496194D01*
X131950000Y-132500000D01*
X130750000Y-132500000D01*
X130730866Y-132496194D01*
X130714645Y-132485355D01*
X130703806Y-132469134D01*
X130700000Y-132450000D01*
X130700000Y-131050000D01*
X130703806Y-131030866D01*
X130714645Y-131014645D01*
X130730866Y-131003806D01*
X130750000Y-131000000D01*
X131950000Y-131000000D01*
G37*
G36*
X131950000Y-128800000D02*
X131969134Y-128803806D01*
X131985355Y-128814645D01*
X131996194Y-128830866D01*
X132000000Y-128850000D01*
X132000000Y-130250000D01*
X131996194Y-130269134D01*
X131985355Y-130285355D01*
X131969134Y-130296194D01*
X131950000Y-130300000D01*
X130750000Y-130300000D01*
X130730866Y-130296194D01*
X130714645Y-130285355D01*
X130703806Y-130269134D01*
X130700000Y-130250000D01*
X130700000Y-128850000D01*
X130703806Y-128830866D01*
X130714645Y-128814645D01*
X130730866Y-128803806D01*
X130750000Y-128800000D01*
X131950000Y-128800000D01*
G37*
G36*
X130250000Y-128800000D02*
X130269134Y-128803806D01*
X130285355Y-128814645D01*
X130296194Y-128830866D01*
X130300000Y-128850000D01*
X130300000Y-130250000D01*
X130296194Y-130269134D01*
X130285355Y-130285355D01*
X130269134Y-130296194D01*
X130250000Y-130300000D01*
X129050000Y-130300000D01*
X129030866Y-130296194D01*
X129014645Y-130285355D01*
X129003806Y-130269134D01*
X129000000Y-130250000D01*
X129000000Y-128850000D01*
X129003806Y-128830866D01*
X129014645Y-128814645D01*
X129030866Y-128803806D01*
X129050000Y-128800000D01*
X130250000Y-128800000D01*
G37*
G36*
X130250000Y-131000000D02*
X130269134Y-131003806D01*
X130285355Y-131014645D01*
X130296194Y-131030866D01*
X130300000Y-131050000D01*
X130300000Y-132450000D01*
X130296194Y-132469134D01*
X130285355Y-132485355D01*
X130269134Y-132496194D01*
X130250000Y-132500000D01*
X129050000Y-132500000D01*
X129030866Y-132496194D01*
X129014645Y-132485355D01*
X129003806Y-132469134D01*
X129000000Y-132450000D01*
X129000000Y-131050000D01*
X129003806Y-131030866D01*
X129014645Y-131014645D01*
X129030866Y-131003806D01*
X129050000Y-131000000D01*
X130250000Y-131000000D01*
G37*
G36*
X128000000Y-129025000D02*
X128105238Y-129045933D01*
X128194454Y-129105546D01*
X128254067Y-129194762D01*
X128275000Y-129300000D01*
X128275000Y-129800000D01*
X128254067Y-129905238D01*
X128194454Y-129994454D01*
X128105238Y-130054067D01*
X128000000Y-130075000D01*
X127550000Y-130075000D01*
X127444762Y-130054067D01*
X127355546Y-129994454D01*
X127295933Y-129905238D01*
X127275000Y-129800000D01*
X127275000Y-129300000D01*
X127295933Y-129194762D01*
X127355546Y-129105546D01*
X127444762Y-129045933D01*
X127550000Y-129025000D01*
X128000000Y-129025000D01*
G37*
G36*
X126450000Y-129025000D02*
X126555238Y-129045933D01*
X126644454Y-129105546D01*
X126704067Y-129194762D01*
X126725000Y-129300000D01*
X126725000Y-129800000D01*
X126704067Y-129905238D01*
X126644454Y-129994454D01*
X126555238Y-130054067D01*
X126450000Y-130075000D01*
X126000000Y-130075000D01*
X125894762Y-130054067D01*
X125805546Y-129994454D01*
X125745933Y-129905238D01*
X125725000Y-129800000D01*
X125725000Y-129300000D01*
X125745933Y-129194762D01*
X125805546Y-129105546D01*
X125894762Y-129045933D01*
X126000000Y-129025000D01*
X126450000Y-129025000D01*
G37*
G36*
X131600000Y-133125000D02*
X131705238Y-133145933D01*
X131794454Y-133205546D01*
X131854067Y-133294762D01*
X131875000Y-133400000D01*
X131875000Y-133850000D01*
X131854067Y-133955238D01*
X131794454Y-134044454D01*
X131705238Y-134104067D01*
X131600000Y-134125000D01*
X131100000Y-134125000D01*
X130994762Y-134104067D01*
X130905546Y-134044454D01*
X130845933Y-133955238D01*
X130825000Y-133850000D01*
X130825000Y-133400000D01*
X130845933Y-133294762D01*
X130905546Y-133205546D01*
X130994762Y-133145933D01*
X131100000Y-133125000D01*
X131600000Y-133125000D01*
G37*
G36*
X131600000Y-134675000D02*
X131705238Y-134695933D01*
X131794454Y-134755546D01*
X131854067Y-134844762D01*
X131875000Y-134950000D01*
X131875000Y-135400000D01*
X131854067Y-135505238D01*
X131794454Y-135594454D01*
X131705238Y-135654067D01*
X131600000Y-135675000D01*
X131100000Y-135675000D01*
X130994762Y-135654067D01*
X130905546Y-135594454D01*
X130845933Y-135505238D01*
X130825000Y-135400000D01*
X130825000Y-134950000D01*
X130845933Y-134844762D01*
X130905546Y-134755546D01*
X130994762Y-134695933D01*
X131100000Y-134675000D01*
X131600000Y-134675000D01*
G37*
G36*
X117450000Y-141475000D02*
X117555238Y-141495933D01*
X117644454Y-141555546D01*
X117704067Y-141644762D01*
X117725000Y-141750000D01*
X117725000Y-142250000D01*
X117704067Y-142355238D01*
X117644454Y-142444454D01*
X117555238Y-142504067D01*
X117450000Y-142525000D01*
X117000000Y-142525000D01*
X116894762Y-142504067D01*
X116805546Y-142444454D01*
X116745933Y-142355238D01*
X116725000Y-142250000D01*
X116725000Y-141750000D01*
X116745933Y-141644762D01*
X116805546Y-141555546D01*
X116894762Y-141495933D01*
X117000000Y-141475000D01*
X117450000Y-141475000D01*
G37*
G36*
X119000000Y-141475000D02*
X119105238Y-141495933D01*
X119194454Y-141555546D01*
X119254067Y-141644762D01*
X119275000Y-141750000D01*
X119275000Y-142250000D01*
X119254067Y-142355238D01*
X119194454Y-142444454D01*
X119105238Y-142504067D01*
X119000000Y-142525000D01*
X118550000Y-142525000D01*
X118444762Y-142504067D01*
X118355546Y-142444454D01*
X118295933Y-142355238D01*
X118275000Y-142250000D01*
X118275000Y-141750000D01*
X118295933Y-141644762D01*
X118355546Y-141555546D01*
X118444762Y-141495933D01*
X118550000Y-141475000D01*
X119000000Y-141475000D01*
G37*
D13*
X109000000Y-146000000D03*
X109000000Y-150500000D03*
X115500000Y-146000000D03*
X115500000Y-150500000D03*
G36*
X134775000Y-118275000D02*
X134870671Y-118294030D01*
X134951777Y-118348223D01*
X135005970Y-118429329D01*
X135025000Y-118525000D01*
X135025000Y-119075000D01*
X135005970Y-119170671D01*
X134951777Y-119251777D01*
X134870671Y-119305970D01*
X134775000Y-119325000D01*
X134375000Y-119325000D01*
X134279329Y-119305970D01*
X134198223Y-119251777D01*
X134144030Y-119170671D01*
X134125000Y-119075000D01*
X134125000Y-118525000D01*
X134144030Y-118429329D01*
X134198223Y-118348223D01*
X134279329Y-118294030D01*
X134375000Y-118275000D01*
X134775000Y-118275000D01*
G37*
G36*
X136425000Y-118275000D02*
X136520671Y-118294030D01*
X136601777Y-118348223D01*
X136655970Y-118429329D01*
X136675000Y-118525000D01*
X136675000Y-119075000D01*
X136655970Y-119170671D01*
X136601777Y-119251777D01*
X136520671Y-119305970D01*
X136425000Y-119325000D01*
X136025000Y-119325000D01*
X135929329Y-119305970D01*
X135848223Y-119251777D01*
X135794030Y-119170671D01*
X135775000Y-119075000D01*
X135775000Y-118525000D01*
X135794030Y-118429329D01*
X135848223Y-118348223D01*
X135929329Y-118294030D01*
X136025000Y-118275000D01*
X136425000Y-118275000D01*
G37*
G36*
X135250000Y-120400000D02*
X135269134Y-120403806D01*
X135285355Y-120414645D01*
X135296194Y-120430866D01*
X135300000Y-120450000D01*
X135300000Y-121950000D01*
X135296194Y-121969134D01*
X135285355Y-121985355D01*
X135269134Y-121996194D01*
X135250000Y-122000000D01*
X134250000Y-122000000D01*
X134230866Y-121996194D01*
X134214645Y-121985355D01*
X134203806Y-121969134D01*
X134200000Y-121950000D01*
X134200000Y-120450000D01*
X134203806Y-120430866D01*
X134214645Y-120414645D01*
X134230866Y-120403806D01*
X134250000Y-120400000D01*
X135250000Y-120400000D01*
G37*
G36*
X136550000Y-120400000D02*
X136569134Y-120403806D01*
X136585355Y-120414645D01*
X136596194Y-120430866D01*
X136600000Y-120450000D01*
X136600000Y-121950000D01*
X136596194Y-121969134D01*
X136585355Y-121985355D01*
X136569134Y-121996194D01*
X136550000Y-122000000D01*
X135550000Y-122000000D01*
X135530866Y-121996194D01*
X135514645Y-121985355D01*
X135503806Y-121969134D01*
X135500000Y-121950000D01*
X135500000Y-120450000D01*
X135503806Y-120430866D01*
X135514645Y-120414645D01*
X135530866Y-120403806D01*
X135550000Y-120400000D01*
X136550000Y-120400000D01*
G37*
G36*
X125375000Y-141475000D02*
X125470671Y-141494030D01*
X125551777Y-141548223D01*
X125605970Y-141629329D01*
X125625000Y-141725000D01*
X125625000Y-142275000D01*
X125605970Y-142370671D01*
X125551777Y-142451777D01*
X125470671Y-142505970D01*
X125375000Y-142525000D01*
X124975000Y-142525000D01*
X124879329Y-142505970D01*
X124798223Y-142451777D01*
X124744030Y-142370671D01*
X124725000Y-142275000D01*
X124725000Y-141725000D01*
X124744030Y-141629329D01*
X124798223Y-141548223D01*
X124879329Y-141494030D01*
X124975000Y-141475000D01*
X125375000Y-141475000D01*
G37*
G36*
X127025000Y-141475000D02*
X127120671Y-141494030D01*
X127201777Y-141548223D01*
X127255970Y-141629329D01*
X127275000Y-141725000D01*
X127275000Y-142275000D01*
X127255970Y-142370671D01*
X127201777Y-142451777D01*
X127120671Y-142505970D01*
X127025000Y-142525000D01*
X126625000Y-142525000D01*
X126529329Y-142505970D01*
X126448223Y-142451777D01*
X126394030Y-142370671D01*
X126375000Y-142275000D01*
X126375000Y-141725000D01*
X126394030Y-141629329D01*
X126448223Y-141548223D01*
X126529329Y-141494030D01*
X126625000Y-141475000D01*
X127025000Y-141475000D01*
G37*
G36*
X125450000Y-143075000D02*
X125555238Y-143095933D01*
X125644454Y-143155546D01*
X125704067Y-143244762D01*
X125725000Y-143350000D01*
X125725000Y-143850000D01*
X125704067Y-143955238D01*
X125644454Y-144044454D01*
X125555238Y-144104067D01*
X125450000Y-144125000D01*
X125000000Y-144125000D01*
X124894762Y-144104067D01*
X124805546Y-144044454D01*
X124745933Y-143955238D01*
X124725000Y-143850000D01*
X124725000Y-143350000D01*
X124745933Y-143244762D01*
X124805546Y-143155546D01*
X124894762Y-143095933D01*
X125000000Y-143075000D01*
X125450000Y-143075000D01*
G37*
G36*
X127000000Y-143075000D02*
X127105238Y-143095933D01*
X127194454Y-143155546D01*
X127254067Y-143244762D01*
X127275000Y-143350000D01*
X127275000Y-143850000D01*
X127254067Y-143955238D01*
X127194454Y-144044454D01*
X127105238Y-144104067D01*
X127000000Y-144125000D01*
X126550000Y-144125000D01*
X126444762Y-144104067D01*
X126355546Y-144044454D01*
X126295933Y-143955238D01*
X126275000Y-143850000D01*
X126275000Y-143350000D01*
X126295933Y-143244762D01*
X126355546Y-143155546D01*
X126444762Y-143095933D01*
X126550000Y-143075000D01*
X127000000Y-143075000D01*
G37*
X119500000Y-146000000D03*
X119500000Y-150500000D03*
X126000000Y-146000000D03*
X126000000Y-150500000D03*
G36*
X149275000Y-145325000D02*
X149370671Y-145344030D01*
X149451777Y-145398223D01*
X149505970Y-145479329D01*
X149525000Y-145575000D01*
X149525000Y-145975000D01*
X149505970Y-146070671D01*
X149451777Y-146151777D01*
X149370671Y-146205970D01*
X149275000Y-146225000D01*
X148725000Y-146225000D01*
X148629329Y-146205970D01*
X148548223Y-146151777D01*
X148494030Y-146070671D01*
X148475000Y-145975000D01*
X148475000Y-145575000D01*
X148494030Y-145479329D01*
X148548223Y-145398223D01*
X148629329Y-145344030D01*
X148725000Y-145325000D01*
X149275000Y-145325000D01*
G37*
G36*
X149275000Y-146975000D02*
X149370671Y-146994030D01*
X149451777Y-147048223D01*
X149505970Y-147129329D01*
X149525000Y-147225000D01*
X149525000Y-147625000D01*
X149505970Y-147720671D01*
X149451777Y-147801777D01*
X149370671Y-147855970D01*
X149275000Y-147875000D01*
X148725000Y-147875000D01*
X148629329Y-147855970D01*
X148548223Y-147801777D01*
X148494030Y-147720671D01*
X148475000Y-147625000D01*
X148475000Y-147225000D01*
X148494030Y-147129329D01*
X148548223Y-147048223D01*
X148629329Y-146994030D01*
X148725000Y-146975000D01*
X149275000Y-146975000D01*
G37*
G36*
X149256250Y-150900000D02*
X149359096Y-150920457D01*
X149446285Y-150978715D01*
X149504543Y-151065904D01*
X149525000Y-151168750D01*
X149525000Y-151606250D01*
X149504543Y-151709096D01*
X149446285Y-151796285D01*
X149359096Y-151854543D01*
X149256250Y-151875000D01*
X148743750Y-151875000D01*
X148640904Y-151854543D01*
X148553715Y-151796285D01*
X148495457Y-151709096D01*
X148475000Y-151606250D01*
X148475000Y-151168750D01*
X148495457Y-151065904D01*
X148553715Y-150978715D01*
X148640904Y-150920457D01*
X148743750Y-150900000D01*
X149256250Y-150900000D01*
G37*
G36*
X149256250Y-149325000D02*
X149359096Y-149345457D01*
X149446285Y-149403715D01*
X149504543Y-149490904D01*
X149525000Y-149593750D01*
X149525000Y-150031250D01*
X149504543Y-150134096D01*
X149446285Y-150221285D01*
X149359096Y-150279543D01*
X149256250Y-150300000D01*
X148743750Y-150300000D01*
X148640904Y-150279543D01*
X148553715Y-150221285D01*
X148495457Y-150134096D01*
X148475000Y-150031250D01*
X148475000Y-149593750D01*
X148495457Y-149490904D01*
X148553715Y-149403715D01*
X148640904Y-149345457D01*
X148743750Y-149325000D01*
X149256250Y-149325000D01*
G37*
G36*
X151775000Y-145325000D02*
X151870671Y-145344030D01*
X151951777Y-145398223D01*
X152005970Y-145479329D01*
X152025000Y-145575000D01*
X152025000Y-145975000D01*
X152005970Y-146070671D01*
X151951777Y-146151777D01*
X151870671Y-146205970D01*
X151775000Y-146225000D01*
X151225000Y-146225000D01*
X151129329Y-146205970D01*
X151048223Y-146151777D01*
X150994030Y-146070671D01*
X150975000Y-145975000D01*
X150975000Y-145575000D01*
X150994030Y-145479329D01*
X151048223Y-145398223D01*
X151129329Y-145344030D01*
X151225000Y-145325000D01*
X151775000Y-145325000D01*
G37*
G36*
X151775000Y-146975000D02*
X151870671Y-146994030D01*
X151951777Y-147048223D01*
X152005970Y-147129329D01*
X152025000Y-147225000D01*
X152025000Y-147625000D01*
X152005970Y-147720671D01*
X151951777Y-147801777D01*
X151870671Y-147855970D01*
X151775000Y-147875000D01*
X151225000Y-147875000D01*
X151129329Y-147855970D01*
X151048223Y-147801777D01*
X150994030Y-147720671D01*
X150975000Y-147625000D01*
X150975000Y-147225000D01*
X150994030Y-147129329D01*
X151048223Y-147048223D01*
X151129329Y-146994030D01*
X151225000Y-146975000D01*
X151775000Y-146975000D01*
G37*
G36*
X151756250Y-150900000D02*
X151859096Y-150920457D01*
X151946285Y-150978715D01*
X152004543Y-151065904D01*
X152025000Y-151168750D01*
X152025000Y-151606250D01*
X152004543Y-151709096D01*
X151946285Y-151796285D01*
X151859096Y-151854543D01*
X151756250Y-151875000D01*
X151243750Y-151875000D01*
X151140904Y-151854543D01*
X151053715Y-151796285D01*
X150995457Y-151709096D01*
X150975000Y-151606250D01*
X150975000Y-151168750D01*
X150995457Y-151065904D01*
X151053715Y-150978715D01*
X151140904Y-150920457D01*
X151243750Y-150900000D01*
X151756250Y-150900000D01*
G37*
G36*
X151756250Y-149325000D02*
X151859096Y-149345457D01*
X151946285Y-149403715D01*
X152004543Y-149490904D01*
X152025000Y-149593750D01*
X152025000Y-150031250D01*
X152004543Y-150134096D01*
X151946285Y-150221285D01*
X151859096Y-150279543D01*
X151756250Y-150300000D01*
X151243750Y-150300000D01*
X151140904Y-150279543D01*
X151053715Y-150221285D01*
X150995457Y-150134096D01*
X150975000Y-150031250D01*
X150975000Y-149593750D01*
X150995457Y-149490904D01*
X151053715Y-149403715D01*
X151140904Y-149345457D01*
X151243750Y-149325000D01*
X151756250Y-149325000D01*
G37*
G36*
X154275000Y-145325000D02*
X154370671Y-145344030D01*
X154451777Y-145398223D01*
X154505970Y-145479329D01*
X154525000Y-145575000D01*
X154525000Y-145975000D01*
X154505970Y-146070671D01*
X154451777Y-146151777D01*
X154370671Y-146205970D01*
X154275000Y-146225000D01*
X153725000Y-146225000D01*
X153629329Y-146205970D01*
X153548223Y-146151777D01*
X153494030Y-146070671D01*
X153475000Y-145975000D01*
X153475000Y-145575000D01*
X153494030Y-145479329D01*
X153548223Y-145398223D01*
X153629329Y-145344030D01*
X153725000Y-145325000D01*
X154275000Y-145325000D01*
G37*
G36*
X154275000Y-146975000D02*
X154370671Y-146994030D01*
X154451777Y-147048223D01*
X154505970Y-147129329D01*
X154525000Y-147225000D01*
X154525000Y-147625000D01*
X154505970Y-147720671D01*
X154451777Y-147801777D01*
X154370671Y-147855970D01*
X154275000Y-147875000D01*
X153725000Y-147875000D01*
X153629329Y-147855970D01*
X153548223Y-147801777D01*
X153494030Y-147720671D01*
X153475000Y-147625000D01*
X153475000Y-147225000D01*
X153494030Y-147129329D01*
X153548223Y-147048223D01*
X153629329Y-146994030D01*
X153725000Y-146975000D01*
X154275000Y-146975000D01*
G37*
G36*
X154256250Y-150900000D02*
X154359096Y-150920457D01*
X154446285Y-150978715D01*
X154504543Y-151065904D01*
X154525000Y-151168750D01*
X154525000Y-151606250D01*
X154504543Y-151709096D01*
X154446285Y-151796285D01*
X154359096Y-151854543D01*
X154256250Y-151875000D01*
X153743750Y-151875000D01*
X153640904Y-151854543D01*
X153553715Y-151796285D01*
X153495457Y-151709096D01*
X153475000Y-151606250D01*
X153475000Y-151168750D01*
X153495457Y-151065904D01*
X153553715Y-150978715D01*
X153640904Y-150920457D01*
X153743750Y-150900000D01*
X154256250Y-150900000D01*
G37*
G36*
X154256250Y-149325000D02*
X154359096Y-149345457D01*
X154446285Y-149403715D01*
X154504543Y-149490904D01*
X154525000Y-149593750D01*
X154525000Y-150031250D01*
X154504543Y-150134096D01*
X154446285Y-150221285D01*
X154359096Y-150279543D01*
X154256250Y-150300000D01*
X153743750Y-150300000D01*
X153640904Y-150279543D01*
X153553715Y-150221285D01*
X153495457Y-150134096D01*
X153475000Y-150031250D01*
X153475000Y-149593750D01*
X153495457Y-149490904D01*
X153553715Y-149403715D01*
X153640904Y-149345457D01*
X153743750Y-149325000D01*
X154256250Y-149325000D01*
G37*
G36*
X156775000Y-145325000D02*
X156870671Y-145344030D01*
X156951777Y-145398223D01*
X157005970Y-145479329D01*
X157025000Y-145575000D01*
X157025000Y-145975000D01*
X157005970Y-146070671D01*
X156951777Y-146151777D01*
X156870671Y-146205970D01*
X156775000Y-146225000D01*
X156225000Y-146225000D01*
X156129329Y-146205970D01*
X156048223Y-146151777D01*
X155994030Y-146070671D01*
X155975000Y-145975000D01*
X155975000Y-145575000D01*
X155994030Y-145479329D01*
X156048223Y-145398223D01*
X156129329Y-145344030D01*
X156225000Y-145325000D01*
X156775000Y-145325000D01*
G37*
G36*
X156775000Y-146975000D02*
X156870671Y-146994030D01*
X156951777Y-147048223D01*
X157005970Y-147129329D01*
X157025000Y-147225000D01*
X157025000Y-147625000D01*
X157005970Y-147720671D01*
X156951777Y-147801777D01*
X156870671Y-147855970D01*
X156775000Y-147875000D01*
X156225000Y-147875000D01*
X156129329Y-147855970D01*
X156048223Y-147801777D01*
X155994030Y-147720671D01*
X155975000Y-147625000D01*
X155975000Y-147225000D01*
X155994030Y-147129329D01*
X156048223Y-147048223D01*
X156129329Y-146994030D01*
X156225000Y-146975000D01*
X156775000Y-146975000D01*
G37*
G36*
X156756250Y-150900000D02*
X156859096Y-150920457D01*
X156946285Y-150978715D01*
X157004543Y-151065904D01*
X157025000Y-151168750D01*
X157025000Y-151606250D01*
X157004543Y-151709096D01*
X156946285Y-151796285D01*
X156859096Y-151854543D01*
X156756250Y-151875000D01*
X156243750Y-151875000D01*
X156140904Y-151854543D01*
X156053715Y-151796285D01*
X155995457Y-151709096D01*
X155975000Y-151606250D01*
X155975000Y-151168750D01*
X155995457Y-151065904D01*
X156053715Y-150978715D01*
X156140904Y-150920457D01*
X156243750Y-150900000D01*
X156756250Y-150900000D01*
G37*
G36*
X156756250Y-149325000D02*
X156859096Y-149345457D01*
X156946285Y-149403715D01*
X157004543Y-149490904D01*
X157025000Y-149593750D01*
X157025000Y-150031250D01*
X157004543Y-150134096D01*
X156946285Y-150221285D01*
X156859096Y-150279543D01*
X156756250Y-150300000D01*
X156243750Y-150300000D01*
X156140904Y-150279543D01*
X156053715Y-150221285D01*
X155995457Y-150134096D01*
X155975000Y-150031250D01*
X155975000Y-149593750D01*
X155995457Y-149490904D01*
X156053715Y-149403715D01*
X156140904Y-149345457D01*
X156243750Y-149325000D01*
X156756250Y-149325000D01*
G37*
G36*
X142750000Y-142200000D02*
X142769134Y-142203806D01*
X142785355Y-142214645D01*
X142796194Y-142230866D01*
X142800000Y-142250000D01*
X142800000Y-143250000D01*
X142796194Y-143269134D01*
X142785355Y-143285355D01*
X142769134Y-143296194D01*
X142750000Y-143300000D01*
X141250000Y-143300000D01*
X141230866Y-143296194D01*
X141214645Y-143285355D01*
X141203806Y-143269134D01*
X141200000Y-143250000D01*
X141200000Y-142250000D01*
X141203806Y-142230866D01*
X141214645Y-142214645D01*
X141230866Y-142203806D01*
X141250000Y-142200000D01*
X142750000Y-142200000D01*
G37*
G36*
X142750000Y-143500000D02*
X142769134Y-143503806D01*
X142785355Y-143514645D01*
X142796194Y-143530866D01*
X142800000Y-143550000D01*
X142800000Y-144550000D01*
X142796194Y-144569134D01*
X142785355Y-144585355D01*
X142769134Y-144596194D01*
X142750000Y-144600000D01*
X141250000Y-144600000D01*
X141230866Y-144596194D01*
X141214645Y-144585355D01*
X141203806Y-144569134D01*
X141200000Y-144550000D01*
X141200000Y-143550000D01*
X141203806Y-143530866D01*
X141214645Y-143514645D01*
X141230866Y-143503806D01*
X141250000Y-143500000D01*
X142750000Y-143500000D01*
G37*
G36*
X146150000Y-142200000D02*
X146169134Y-142203806D01*
X146185355Y-142214645D01*
X146196194Y-142230866D01*
X146200000Y-142250000D01*
X146200000Y-143250000D01*
X146196194Y-143269134D01*
X146185355Y-143285355D01*
X146169134Y-143296194D01*
X146150000Y-143300000D01*
X144650000Y-143300000D01*
X144630866Y-143296194D01*
X144614645Y-143285355D01*
X144603806Y-143269134D01*
X144600000Y-143250000D01*
X144600000Y-142250000D01*
X144603806Y-142230866D01*
X144614645Y-142214645D01*
X144630866Y-142203806D01*
X144650000Y-142200000D01*
X146150000Y-142200000D01*
G37*
G36*
X146150000Y-143500000D02*
X146169134Y-143503806D01*
X146185355Y-143514645D01*
X146196194Y-143530866D01*
X146200000Y-143550000D01*
X146200000Y-144550000D01*
X146196194Y-144569134D01*
X146185355Y-144585355D01*
X146169134Y-144596194D01*
X146150000Y-144600000D01*
X144650000Y-144600000D01*
X144630866Y-144596194D01*
X144614645Y-144585355D01*
X144603806Y-144569134D01*
X144600000Y-144550000D01*
X144600000Y-143550000D01*
X144603806Y-143530866D01*
X144614645Y-143514645D01*
X144630866Y-143503806D01*
X144650000Y-143500000D01*
X146150000Y-143500000D01*
G37*
G36*
X156350000Y-127745000D02*
X156426537Y-127760224D01*
X156491421Y-127803579D01*
X156534776Y-127868463D01*
X156550000Y-127945000D01*
X156550000Y-128245000D01*
X156534776Y-128321537D01*
X156491421Y-128386421D01*
X156426537Y-128429776D01*
X156350000Y-128445000D01*
X154700000Y-128445000D01*
X154623463Y-128429776D01*
X154558579Y-128386421D01*
X154515224Y-128321537D01*
X154500000Y-128245000D01*
X154500000Y-127945000D01*
X154515224Y-127868463D01*
X154558579Y-127803579D01*
X154623463Y-127760224D01*
X154700000Y-127745000D01*
X156350000Y-127745000D01*
G37*
G36*
X156350000Y-129015000D02*
X156426537Y-129030224D01*
X156491421Y-129073579D01*
X156534776Y-129138463D01*
X156550000Y-129215000D01*
X156550000Y-129515000D01*
X156534776Y-129591537D01*
X156491421Y-129656421D01*
X156426537Y-129699776D01*
X156350000Y-129715000D01*
X154700000Y-129715000D01*
X154623463Y-129699776D01*
X154558579Y-129656421D01*
X154515224Y-129591537D01*
X154500000Y-129515000D01*
X154500000Y-129215000D01*
X154515224Y-129138463D01*
X154558579Y-129073579D01*
X154623463Y-129030224D01*
X154700000Y-129015000D01*
X156350000Y-129015000D01*
G37*
G36*
X156350000Y-130285000D02*
X156426537Y-130300224D01*
X156491421Y-130343579D01*
X156534776Y-130408463D01*
X156550000Y-130485000D01*
X156550000Y-130785000D01*
X156534776Y-130861537D01*
X156491421Y-130926421D01*
X156426537Y-130969776D01*
X156350000Y-130985000D01*
X154700000Y-130985000D01*
X154623463Y-130969776D01*
X154558579Y-130926421D01*
X154515224Y-130861537D01*
X154500000Y-130785000D01*
X154500000Y-130485000D01*
X154515224Y-130408463D01*
X154558579Y-130343579D01*
X154623463Y-130300224D01*
X154700000Y-130285000D01*
X156350000Y-130285000D01*
G37*
G36*
X156350000Y-131555000D02*
X156426537Y-131570224D01*
X156491421Y-131613579D01*
X156534776Y-131678463D01*
X156550000Y-131755000D01*
X156550000Y-132055000D01*
X156534776Y-132131537D01*
X156491421Y-132196421D01*
X156426537Y-132239776D01*
X156350000Y-132255000D01*
X154700000Y-132255000D01*
X154623463Y-132239776D01*
X154558579Y-132196421D01*
X154515224Y-132131537D01*
X154500000Y-132055000D01*
X154500000Y-131755000D01*
X154515224Y-131678463D01*
X154558579Y-131613579D01*
X154623463Y-131570224D01*
X154700000Y-131555000D01*
X156350000Y-131555000D01*
G37*
G36*
X161300000Y-131555000D02*
X161376537Y-131570224D01*
X161441421Y-131613579D01*
X161484776Y-131678463D01*
X161500000Y-131755000D01*
X161500000Y-132055000D01*
X161484776Y-132131537D01*
X161441421Y-132196421D01*
X161376537Y-132239776D01*
X161300000Y-132255000D01*
X159650000Y-132255000D01*
X159573463Y-132239776D01*
X159508579Y-132196421D01*
X159465224Y-132131537D01*
X159450000Y-132055000D01*
X159450000Y-131755000D01*
X159465224Y-131678463D01*
X159508579Y-131613579D01*
X159573463Y-131570224D01*
X159650000Y-131555000D01*
X161300000Y-131555000D01*
G37*
G36*
X161300000Y-130285000D02*
X161376537Y-130300224D01*
X161441421Y-130343579D01*
X161484776Y-130408463D01*
X161500000Y-130485000D01*
X161500000Y-130785000D01*
X161484776Y-130861537D01*
X161441421Y-130926421D01*
X161376537Y-130969776D01*
X161300000Y-130985000D01*
X159650000Y-130985000D01*
X159573463Y-130969776D01*
X159508579Y-130926421D01*
X159465224Y-130861537D01*
X159450000Y-130785000D01*
X159450000Y-130485000D01*
X159465224Y-130408463D01*
X159508579Y-130343579D01*
X159573463Y-130300224D01*
X159650000Y-130285000D01*
X161300000Y-130285000D01*
G37*
G36*
X161300000Y-129015000D02*
X161376537Y-129030224D01*
X161441421Y-129073579D01*
X161484776Y-129138463D01*
X161500000Y-129215000D01*
X161500000Y-129515000D01*
X161484776Y-129591537D01*
X161441421Y-129656421D01*
X161376537Y-129699776D01*
X161300000Y-129715000D01*
X159650000Y-129715000D01*
X159573463Y-129699776D01*
X159508579Y-129656421D01*
X159465224Y-129591537D01*
X159450000Y-129515000D01*
X159450000Y-129215000D01*
X159465224Y-129138463D01*
X159508579Y-129073579D01*
X159573463Y-129030224D01*
X159650000Y-129015000D01*
X161300000Y-129015000D01*
G37*
G36*
X161300000Y-127745000D02*
X161376537Y-127760224D01*
X161441421Y-127803579D01*
X161484776Y-127868463D01*
X161500000Y-127945000D01*
X161500000Y-128245000D01*
X161484776Y-128321537D01*
X161441421Y-128386421D01*
X161376537Y-128429776D01*
X161300000Y-128445000D01*
X159650000Y-128445000D01*
X159573463Y-128429776D01*
X159508579Y-128386421D01*
X159465224Y-128321537D01*
X159450000Y-128245000D01*
X159450000Y-127945000D01*
X159465224Y-127868463D01*
X159508579Y-127803579D01*
X159573463Y-127760224D01*
X159650000Y-127745000D01*
X161300000Y-127745000D01*
G37*
G36*
X162325000Y-124875000D02*
X162420671Y-124894030D01*
X162501777Y-124948223D01*
X162555970Y-125029329D01*
X162575000Y-125125000D01*
X162575000Y-125675000D01*
X162555970Y-125770671D01*
X162501777Y-125851777D01*
X162420671Y-125905970D01*
X162325000Y-125925000D01*
X161925000Y-125925000D01*
X161829329Y-125905970D01*
X161748223Y-125851777D01*
X161694030Y-125770671D01*
X161675000Y-125675000D01*
X161675000Y-125125000D01*
X161694030Y-125029329D01*
X161748223Y-124948223D01*
X161829329Y-124894030D01*
X161925000Y-124875000D01*
X162325000Y-124875000D01*
G37*
G36*
X160675000Y-124875000D02*
X160770671Y-124894030D01*
X160851777Y-124948223D01*
X160905970Y-125029329D01*
X160925000Y-125125000D01*
X160925000Y-125675000D01*
X160905970Y-125770671D01*
X160851777Y-125851777D01*
X160770671Y-125905970D01*
X160675000Y-125925000D01*
X160275000Y-125925000D01*
X160179329Y-125905970D01*
X160098223Y-125851777D01*
X160044030Y-125770671D01*
X160025000Y-125675000D01*
X160025000Y-125125000D01*
X160044030Y-125029329D01*
X160098223Y-124948223D01*
X160179329Y-124894030D01*
X160275000Y-124875000D01*
X160675000Y-124875000D01*
G37*
G36*
X155650000Y-134675000D02*
X155755238Y-134695933D01*
X155844454Y-134755546D01*
X155904067Y-134844762D01*
X155925000Y-134950000D01*
X155925000Y-135450000D01*
X155904067Y-135555238D01*
X155844454Y-135644454D01*
X155755238Y-135704067D01*
X155650000Y-135725000D01*
X155200000Y-135725000D01*
X155094762Y-135704067D01*
X155005546Y-135644454D01*
X154945933Y-135555238D01*
X154925000Y-135450000D01*
X154925000Y-134950000D01*
X154945933Y-134844762D01*
X155005546Y-134755546D01*
X155094762Y-134695933D01*
X155200000Y-134675000D01*
X155650000Y-134675000D01*
G37*
G36*
X157200000Y-134675000D02*
X157305238Y-134695933D01*
X157394454Y-134755546D01*
X157454067Y-134844762D01*
X157475000Y-134950000D01*
X157475000Y-135450000D01*
X157454067Y-135555238D01*
X157394454Y-135644454D01*
X157305238Y-135704067D01*
X157200000Y-135725000D01*
X156750000Y-135725000D01*
X156644762Y-135704067D01*
X156555546Y-135644454D01*
X156495933Y-135555238D01*
X156475000Y-135450000D01*
X156475000Y-134950000D01*
X156495933Y-134844762D01*
X156555546Y-134755546D01*
X156644762Y-134695933D01*
X156750000Y-134675000D01*
X157200000Y-134675000D01*
G37*
G36*
X159850000Y-134675000D02*
X159955238Y-134695933D01*
X160044454Y-134755546D01*
X160104067Y-134844762D01*
X160125000Y-134950000D01*
X160125000Y-135450000D01*
X160104067Y-135555238D01*
X160044454Y-135644454D01*
X159955238Y-135704067D01*
X159850000Y-135725000D01*
X159400000Y-135725000D01*
X159294762Y-135704067D01*
X159205546Y-135644454D01*
X159145933Y-135555238D01*
X159125000Y-135450000D01*
X159125000Y-134950000D01*
X159145933Y-134844762D01*
X159205546Y-134755546D01*
X159294762Y-134695933D01*
X159400000Y-134675000D01*
X159850000Y-134675000D01*
G37*
G36*
X161400000Y-134675000D02*
X161505238Y-134695933D01*
X161594454Y-134755546D01*
X161654067Y-134844762D01*
X161675000Y-134950000D01*
X161675000Y-135450000D01*
X161654067Y-135555238D01*
X161594454Y-135644454D01*
X161505238Y-135704067D01*
X161400000Y-135725000D01*
X160950000Y-135725000D01*
X160844762Y-135704067D01*
X160755546Y-135644454D01*
X160695933Y-135555238D01*
X160675000Y-135450000D01*
X160675000Y-134950000D01*
X160695933Y-134844762D01*
X160755546Y-134755546D01*
X160844762Y-134695933D01*
X160950000Y-134675000D01*
X161400000Y-134675000D01*
G37*
G36*
X155500000Y-136625000D02*
X155614805Y-136647836D01*
X155712132Y-136712868D01*
X155777164Y-136810195D01*
X155800000Y-136925000D01*
X155800000Y-137875000D01*
X155777164Y-137989805D01*
X155712132Y-138087132D01*
X155614805Y-138152164D01*
X155500000Y-138175000D01*
X155000000Y-138175000D01*
X154885195Y-138152164D01*
X154787868Y-138087132D01*
X154722836Y-137989805D01*
X154700000Y-137875000D01*
X154700000Y-136925000D01*
X154722836Y-136810195D01*
X154787868Y-136712868D01*
X154885195Y-136647836D01*
X155000000Y-136625000D01*
X155500000Y-136625000D01*
G37*
G36*
X157400000Y-136625000D02*
X157514805Y-136647836D01*
X157612132Y-136712868D01*
X157677164Y-136810195D01*
X157700000Y-136925000D01*
X157700000Y-137875000D01*
X157677164Y-137989805D01*
X157612132Y-138087132D01*
X157514805Y-138152164D01*
X157400000Y-138175000D01*
X156900000Y-138175000D01*
X156785195Y-138152164D01*
X156687868Y-138087132D01*
X156622836Y-137989805D01*
X156600000Y-137875000D01*
X156600000Y-136925000D01*
X156622836Y-136810195D01*
X156687868Y-136712868D01*
X156785195Y-136647836D01*
X156900000Y-136625000D01*
X157400000Y-136625000D01*
G37*
G36*
X167650000Y-121600000D02*
X167726537Y-121615224D01*
X167791421Y-121658579D01*
X167834776Y-121723463D01*
X167850000Y-121800000D01*
X167850000Y-122100000D01*
X167834776Y-122176537D01*
X167791421Y-122241421D01*
X167726537Y-122284776D01*
X167650000Y-122300000D01*
X166625000Y-122300000D01*
X166548463Y-122284776D01*
X166483579Y-122241421D01*
X166440224Y-122176537D01*
X166425000Y-122100000D01*
X166425000Y-121800000D01*
X166440224Y-121723463D01*
X166483579Y-121658579D01*
X166548463Y-121615224D01*
X166625000Y-121600000D01*
X167650000Y-121600000D01*
G37*
G36*
X167650000Y-119700000D02*
X167726537Y-119715224D01*
X167791421Y-119758579D01*
X167834776Y-119823463D01*
X167850000Y-119900000D01*
X167850000Y-120200000D01*
X167834776Y-120276537D01*
X167791421Y-120341421D01*
X167726537Y-120384776D01*
X167650000Y-120400000D01*
X166625000Y-120400000D01*
X166548463Y-120384776D01*
X166483579Y-120341421D01*
X166440224Y-120276537D01*
X166425000Y-120200000D01*
X166425000Y-119900000D01*
X166440224Y-119823463D01*
X166483579Y-119758579D01*
X166548463Y-119715224D01*
X166625000Y-119700000D01*
X167650000Y-119700000D01*
G37*
G36*
X165375000Y-120650000D02*
X165451537Y-120665224D01*
X165516421Y-120708579D01*
X165559776Y-120773463D01*
X165575000Y-120850000D01*
X165575000Y-121150000D01*
X165559776Y-121226537D01*
X165516421Y-121291421D01*
X165451537Y-121334776D01*
X165375000Y-121350000D01*
X164350000Y-121350000D01*
X164273463Y-121334776D01*
X164208579Y-121291421D01*
X164165224Y-121226537D01*
X164150000Y-121150000D01*
X164150000Y-120850000D01*
X164165224Y-120773463D01*
X164208579Y-120708579D01*
X164273463Y-120665224D01*
X164350000Y-120650000D01*
X165375000Y-120650000D01*
G37*
G36*
X163443750Y-136125000D02*
X163560947Y-136148312D01*
X163660301Y-136214699D01*
X163726688Y-136314053D01*
X163750000Y-136431250D01*
X163750000Y-136943750D01*
X163726688Y-137060947D01*
X163660301Y-137160301D01*
X163560947Y-137226688D01*
X163443750Y-137250000D01*
X162556250Y-137250000D01*
X162439053Y-137226688D01*
X162339699Y-137160301D01*
X162273312Y-137060947D01*
X162250000Y-136943750D01*
X162250000Y-136431250D01*
X162273312Y-136314053D01*
X162339699Y-136214699D01*
X162439053Y-136148312D01*
X162556250Y-136125000D01*
X163443750Y-136125000D01*
G37*
G36*
X163443750Y-137950000D02*
X163560947Y-137973312D01*
X163660301Y-138039699D01*
X163726688Y-138139053D01*
X163750000Y-138256250D01*
X163750000Y-138768750D01*
X163726688Y-138885947D01*
X163660301Y-138985301D01*
X163560947Y-139051688D01*
X163443750Y-139075000D01*
X162556250Y-139075000D01*
X162439053Y-139051688D01*
X162339699Y-138985301D01*
X162273312Y-138885947D01*
X162250000Y-138768750D01*
X162250000Y-138256250D01*
X162273312Y-138139053D01*
X162339699Y-138039699D01*
X162439053Y-137973312D01*
X162556250Y-137950000D01*
X163443750Y-137950000D01*
G37*
G36*
X165983750Y-136125000D02*
X166100947Y-136148312D01*
X166200301Y-136214699D01*
X166266688Y-136314053D01*
X166290000Y-136431250D01*
X166290000Y-136943750D01*
X166266688Y-137060947D01*
X166200301Y-137160301D01*
X166100947Y-137226688D01*
X165983750Y-137250000D01*
X165096250Y-137250000D01*
X164979053Y-137226688D01*
X164879699Y-137160301D01*
X164813312Y-137060947D01*
X164790000Y-136943750D01*
X164790000Y-136431250D01*
X164813312Y-136314053D01*
X164879699Y-136214699D01*
X164979053Y-136148312D01*
X165096250Y-136125000D01*
X165983750Y-136125000D01*
G37*
G36*
X165983750Y-137950000D02*
X166100947Y-137973312D01*
X166200301Y-138039699D01*
X166266688Y-138139053D01*
X166290000Y-138256250D01*
X166290000Y-138768750D01*
X166266688Y-138885947D01*
X166200301Y-138985301D01*
X166100947Y-139051688D01*
X165983750Y-139075000D01*
X165096250Y-139075000D01*
X164979053Y-139051688D01*
X164879699Y-138985301D01*
X164813312Y-138885947D01*
X164790000Y-138768750D01*
X164790000Y-138256250D01*
X164813312Y-138139053D01*
X164879699Y-138039699D01*
X164979053Y-137973312D01*
X165096250Y-137950000D01*
X165983750Y-137950000D01*
G37*
G36*
X163720000Y-146375000D02*
X163825238Y-146395933D01*
X163914454Y-146455546D01*
X163974067Y-146544762D01*
X163995000Y-146650000D01*
X163995000Y-147150000D01*
X163974067Y-147255238D01*
X163914454Y-147344454D01*
X163825238Y-147404067D01*
X163720000Y-147425000D01*
X163270000Y-147425000D01*
X163164762Y-147404067D01*
X163075546Y-147344454D01*
X163015933Y-147255238D01*
X162995000Y-147150000D01*
X162995000Y-146650000D01*
X163015933Y-146544762D01*
X163075546Y-146455546D01*
X163164762Y-146395933D01*
X163270000Y-146375000D01*
X163720000Y-146375000D01*
G37*
G36*
X165270000Y-146375000D02*
X165375238Y-146395933D01*
X165464454Y-146455546D01*
X165524067Y-146544762D01*
X165545000Y-146650000D01*
X165545000Y-147150000D01*
X165524067Y-147255238D01*
X165464454Y-147344454D01*
X165375238Y-147404067D01*
X165270000Y-147425000D01*
X164820000Y-147425000D01*
X164714762Y-147404067D01*
X164625546Y-147344454D01*
X164565933Y-147255238D01*
X164545000Y-147150000D01*
X164545000Y-146650000D01*
X164565933Y-146544762D01*
X164625546Y-146455546D01*
X164714762Y-146395933D01*
X164820000Y-146375000D01*
X165270000Y-146375000D01*
G37*
G36*
X163850000Y-140300000D02*
X163869134Y-140303806D01*
X163885355Y-140314645D01*
X163896194Y-140330866D01*
X163900000Y-140350000D01*
X163900000Y-142050000D01*
X163896194Y-142069134D01*
X163885355Y-142085355D01*
X163869134Y-142096194D01*
X163850000Y-142100000D01*
X162150000Y-142100000D01*
X162130866Y-142096194D01*
X162114645Y-142085355D01*
X162103806Y-142069134D01*
X162100000Y-142050000D01*
X162100000Y-140350000D01*
X162103806Y-140330866D01*
X162114645Y-140314645D01*
X162130866Y-140303806D01*
X162150000Y-140300000D01*
X163850000Y-140300000D01*
G37*
D14*
X165540000Y-141200000D03*
X163000000Y-143740000D03*
X165540000Y-143740000D03*
G36*
X176600000Y-111550000D02*
X176619134Y-111553806D01*
X176635355Y-111564645D01*
X176646194Y-111580866D01*
X176650000Y-111600000D01*
X176650000Y-114200000D01*
X176646194Y-114219134D01*
X176635355Y-114235355D01*
X176619134Y-114246194D01*
X176600000Y-114250000D01*
X174000000Y-114250000D01*
X173980866Y-114246194D01*
X173964645Y-114235355D01*
X173953806Y-114219134D01*
X173950000Y-114200000D01*
X173950000Y-111600000D01*
X173953806Y-111580866D01*
X173964645Y-111564645D01*
X173980866Y-111553806D01*
X174000000Y-111550000D01*
X176600000Y-111550000D01*
G37*
D10*
X175300000Y-117980000D03*
X175300000Y-123060000D03*
G36*
X176600000Y-128015000D02*
X176619134Y-128018806D01*
X176635355Y-128029645D01*
X176646194Y-128045866D01*
X176650000Y-128065000D01*
X176650000Y-130665000D01*
X176646194Y-130684134D01*
X176635355Y-130700355D01*
X176619134Y-130711194D01*
X176600000Y-130715000D01*
X174000000Y-130715000D01*
X173980866Y-130711194D01*
X173964645Y-130700355D01*
X173953806Y-130684134D01*
X173950000Y-130665000D01*
X173950000Y-128065000D01*
X173953806Y-128045866D01*
X173964645Y-128029645D01*
X173980866Y-128018806D01*
X174000000Y-128015000D01*
X176600000Y-128015000D01*
G37*
X175300000Y-134445000D03*
X175300000Y-139525000D03*
G36*
X139200000Y-119700000D02*
X139219134Y-119703806D01*
X139235355Y-119714645D01*
X139246194Y-119730866D01*
X139250000Y-119750000D01*
X139250000Y-120000000D01*
X139246194Y-120019134D01*
X139235355Y-120035355D01*
X139219134Y-120046194D01*
X139200000Y-120050000D01*
X138700000Y-120050000D01*
X138680866Y-120046194D01*
X138664645Y-120035355D01*
X138653806Y-120019134D01*
X138650000Y-120000000D01*
X138650000Y-119750000D01*
X138653806Y-119730866D01*
X138664645Y-119714645D01*
X138680866Y-119703806D01*
X138700000Y-119700000D01*
X139200000Y-119700000D01*
G37*
G36*
X139200000Y-120200000D02*
X139219134Y-120203806D01*
X139235355Y-120214645D01*
X139246194Y-120230866D01*
X139250000Y-120250000D01*
X139250000Y-120500000D01*
X139246194Y-120519134D01*
X139235355Y-120535355D01*
X139219134Y-120546194D01*
X139200000Y-120550000D01*
X138700000Y-120550000D01*
X138680866Y-120546194D01*
X138664645Y-120535355D01*
X138653806Y-120519134D01*
X138650000Y-120500000D01*
X138650000Y-120250000D01*
X138653806Y-120230866D01*
X138664645Y-120214645D01*
X138680866Y-120203806D01*
X138700000Y-120200000D01*
X139200000Y-120200000D01*
G37*
G36*
X139200000Y-120700000D02*
X139219134Y-120703806D01*
X139235355Y-120714645D01*
X139246194Y-120730866D01*
X139250000Y-120750000D01*
X139250000Y-121000000D01*
X139246194Y-121019134D01*
X139235355Y-121035355D01*
X139219134Y-121046194D01*
X139200000Y-121050000D01*
X138700000Y-121050000D01*
X138680866Y-121046194D01*
X138664645Y-121035355D01*
X138653806Y-121019134D01*
X138650000Y-121000000D01*
X138650000Y-120750000D01*
X138653806Y-120730866D01*
X138664645Y-120714645D01*
X138680866Y-120703806D01*
X138700000Y-120700000D01*
X139200000Y-120700000D01*
G37*
G36*
X139200000Y-121200000D02*
X139219134Y-121203806D01*
X139235355Y-121214645D01*
X139246194Y-121230866D01*
X139250000Y-121250000D01*
X139250000Y-121500000D01*
X139246194Y-121519134D01*
X139235355Y-121535355D01*
X139219134Y-121546194D01*
X139200000Y-121550000D01*
X138700000Y-121550000D01*
X138680866Y-121546194D01*
X138664645Y-121535355D01*
X138653806Y-121519134D01*
X138650000Y-121500000D01*
X138650000Y-121250000D01*
X138653806Y-121230866D01*
X138664645Y-121214645D01*
X138680866Y-121203806D01*
X138700000Y-121200000D01*
X139200000Y-121200000D01*
G37*
G36*
X139625000Y-121625000D02*
X139644134Y-121628806D01*
X139660355Y-121639645D01*
X139671194Y-121655866D01*
X139675000Y-121675000D01*
X139675000Y-122175000D01*
X139671194Y-122194134D01*
X139660355Y-122210355D01*
X139644134Y-122221194D01*
X139625000Y-122225000D01*
X139375000Y-122225000D01*
X139355866Y-122221194D01*
X139339645Y-122210355D01*
X139328806Y-122194134D01*
X139325000Y-122175000D01*
X139325000Y-121675000D01*
X139328806Y-121655866D01*
X139339645Y-121639645D01*
X139355866Y-121628806D01*
X139375000Y-121625000D01*
X139625000Y-121625000D01*
G37*
G36*
X140125000Y-121625000D02*
X140144134Y-121628806D01*
X140160355Y-121639645D01*
X140171194Y-121655866D01*
X140175000Y-121675000D01*
X140175000Y-122175000D01*
X140171194Y-122194134D01*
X140160355Y-122210355D01*
X140144134Y-122221194D01*
X140125000Y-122225000D01*
X139875000Y-122225000D01*
X139855866Y-122221194D01*
X139839645Y-122210355D01*
X139828806Y-122194134D01*
X139825000Y-122175000D01*
X139825000Y-121675000D01*
X139828806Y-121655866D01*
X139839645Y-121639645D01*
X139855866Y-121628806D01*
X139875000Y-121625000D01*
X140125000Y-121625000D01*
G37*
G36*
X140625000Y-121625000D02*
X140644134Y-121628806D01*
X140660355Y-121639645D01*
X140671194Y-121655866D01*
X140675000Y-121675000D01*
X140675000Y-122175000D01*
X140671194Y-122194134D01*
X140660355Y-122210355D01*
X140644134Y-122221194D01*
X140625000Y-122225000D01*
X140375000Y-122225000D01*
X140355866Y-122221194D01*
X140339645Y-122210355D01*
X140328806Y-122194134D01*
X140325000Y-122175000D01*
X140325000Y-121675000D01*
X140328806Y-121655866D01*
X140339645Y-121639645D01*
X140355866Y-121628806D01*
X140375000Y-121625000D01*
X140625000Y-121625000D01*
G37*
G36*
X141300000Y-121200000D02*
X141319134Y-121203806D01*
X141335355Y-121214645D01*
X141346194Y-121230866D01*
X141350000Y-121250000D01*
X141350000Y-121500000D01*
X141346194Y-121519134D01*
X141335355Y-121535355D01*
X141319134Y-121546194D01*
X141300000Y-121550000D01*
X140800000Y-121550000D01*
X140780866Y-121546194D01*
X140764645Y-121535355D01*
X140753806Y-121519134D01*
X140750000Y-121500000D01*
X140750000Y-121250000D01*
X140753806Y-121230866D01*
X140764645Y-121214645D01*
X140780866Y-121203806D01*
X140800000Y-121200000D01*
X141300000Y-121200000D01*
G37*
G36*
X141300000Y-120700000D02*
X141319134Y-120703806D01*
X141335355Y-120714645D01*
X141346194Y-120730866D01*
X141350000Y-120750000D01*
X141350000Y-121000000D01*
X141346194Y-121019134D01*
X141335355Y-121035355D01*
X141319134Y-121046194D01*
X141300000Y-121050000D01*
X140800000Y-121050000D01*
X140780866Y-121046194D01*
X140764645Y-121035355D01*
X140753806Y-121019134D01*
X140750000Y-121000000D01*
X140750000Y-120750000D01*
X140753806Y-120730866D01*
X140764645Y-120714645D01*
X140780866Y-120703806D01*
X140800000Y-120700000D01*
X141300000Y-120700000D01*
G37*
G36*
X141300000Y-120200000D02*
X141319134Y-120203806D01*
X141335355Y-120214645D01*
X141346194Y-120230866D01*
X141350000Y-120250000D01*
X141350000Y-120500000D01*
X141346194Y-120519134D01*
X141335355Y-120535355D01*
X141319134Y-120546194D01*
X141300000Y-120550000D01*
X140800000Y-120550000D01*
X140780866Y-120546194D01*
X140764645Y-120535355D01*
X140753806Y-120519134D01*
X140750000Y-120500000D01*
X140750000Y-120250000D01*
X140753806Y-120230866D01*
X140764645Y-120214645D01*
X140780866Y-120203806D01*
X140800000Y-120200000D01*
X141300000Y-120200000D01*
G37*
G36*
X141300000Y-119700000D02*
X141319134Y-119703806D01*
X141335355Y-119714645D01*
X141346194Y-119730866D01*
X141350000Y-119750000D01*
X141350000Y-120000000D01*
X141346194Y-120019134D01*
X141335355Y-120035355D01*
X141319134Y-120046194D01*
X141300000Y-120050000D01*
X140800000Y-120050000D01*
X140780866Y-120046194D01*
X140764645Y-120035355D01*
X140753806Y-120019134D01*
X140750000Y-120000000D01*
X140750000Y-119750000D01*
X140753806Y-119730866D01*
X140764645Y-119714645D01*
X140780866Y-119703806D01*
X140800000Y-119700000D01*
X141300000Y-119700000D01*
G37*
G36*
X140625000Y-119025000D02*
X140644134Y-119028806D01*
X140660355Y-119039645D01*
X140671194Y-119055866D01*
X140675000Y-119075000D01*
X140675000Y-119575000D01*
X140671194Y-119594134D01*
X140660355Y-119610355D01*
X140644134Y-119621194D01*
X140625000Y-119625000D01*
X140375000Y-119625000D01*
X140355866Y-119621194D01*
X140339645Y-119610355D01*
X140328806Y-119594134D01*
X140325000Y-119575000D01*
X140325000Y-119075000D01*
X140328806Y-119055866D01*
X140339645Y-119039645D01*
X140355866Y-119028806D01*
X140375000Y-119025000D01*
X140625000Y-119025000D01*
G37*
G36*
X140125000Y-119025000D02*
X140144134Y-119028806D01*
X140160355Y-119039645D01*
X140171194Y-119055866D01*
X140175000Y-119075000D01*
X140175000Y-119575000D01*
X140171194Y-119594134D01*
X140160355Y-119610355D01*
X140144134Y-119621194D01*
X140125000Y-119625000D01*
X139875000Y-119625000D01*
X139855866Y-119621194D01*
X139839645Y-119610355D01*
X139828806Y-119594134D01*
X139825000Y-119575000D01*
X139825000Y-119075000D01*
X139828806Y-119055866D01*
X139839645Y-119039645D01*
X139855866Y-119028806D01*
X139875000Y-119025000D01*
X140125000Y-119025000D01*
G37*
G36*
X139625000Y-119025000D02*
X139644134Y-119028806D01*
X139660355Y-119039645D01*
X139671194Y-119055866D01*
X139675000Y-119075000D01*
X139675000Y-119575000D01*
X139671194Y-119594134D01*
X139660355Y-119610355D01*
X139644134Y-119621194D01*
X139625000Y-119625000D01*
X139375000Y-119625000D01*
X139355866Y-119621194D01*
X139339645Y-119610355D01*
X139328806Y-119594134D01*
X139325000Y-119575000D01*
X139325000Y-119075000D01*
X139328806Y-119055866D01*
X139339645Y-119039645D01*
X139355866Y-119028806D01*
X139375000Y-119025000D01*
X139625000Y-119025000D01*
G37*
G36*
X143850000Y-121075000D02*
X143955238Y-121095933D01*
X144044454Y-121155546D01*
X144104067Y-121244762D01*
X144125000Y-121350000D01*
X144125000Y-121800000D01*
X144104067Y-121905238D01*
X144044454Y-121994454D01*
X143955238Y-122054067D01*
X143850000Y-122075000D01*
X143350000Y-122075000D01*
X143244762Y-122054067D01*
X143155546Y-121994454D01*
X143095933Y-121905238D01*
X143075000Y-121800000D01*
X143075000Y-121350000D01*
X143095933Y-121244762D01*
X143155546Y-121155546D01*
X143244762Y-121095933D01*
X143350000Y-121075000D01*
X143850000Y-121075000D01*
G37*
G36*
X143850000Y-119525000D02*
X143955238Y-119545933D01*
X144044454Y-119605546D01*
X144104067Y-119694762D01*
X144125000Y-119800000D01*
X144125000Y-120250000D01*
X144104067Y-120355238D01*
X144044454Y-120444454D01*
X143955238Y-120504067D01*
X143850000Y-120525000D01*
X143350000Y-120525000D01*
X143244762Y-120504067D01*
X143155546Y-120444454D01*
X143095933Y-120355238D01*
X143075000Y-120250000D01*
X143075000Y-119800000D01*
X143095933Y-119694762D01*
X143155546Y-119605546D01*
X143244762Y-119545933D01*
X143350000Y-119525000D01*
X143850000Y-119525000D01*
G37*
G36*
X138250000Y-117075000D02*
X138355238Y-117095933D01*
X138444454Y-117155546D01*
X138504067Y-117244762D01*
X138525000Y-117350000D01*
X138525000Y-117850000D01*
X138504067Y-117955238D01*
X138444454Y-118044454D01*
X138355238Y-118104067D01*
X138250000Y-118125000D01*
X137800000Y-118125000D01*
X137694762Y-118104067D01*
X137605546Y-118044454D01*
X137545933Y-117955238D01*
X137525000Y-117850000D01*
X137525000Y-117350000D01*
X137545933Y-117244762D01*
X137605546Y-117155546D01*
X137694762Y-117095933D01*
X137800000Y-117075000D01*
X138250000Y-117075000D01*
G37*
G36*
X139800000Y-117075000D02*
X139905238Y-117095933D01*
X139994454Y-117155546D01*
X140054067Y-117244762D01*
X140075000Y-117350000D01*
X140075000Y-117850000D01*
X140054067Y-117955238D01*
X139994454Y-118044454D01*
X139905238Y-118104067D01*
X139800000Y-118125000D01*
X139350000Y-118125000D01*
X139244762Y-118104067D01*
X139155546Y-118044454D01*
X139095933Y-117955238D01*
X139075000Y-117850000D01*
X139075000Y-117350000D01*
X139095933Y-117244762D01*
X139155546Y-117155546D01*
X139244762Y-117095933D01*
X139350000Y-117075000D01*
X139800000Y-117075000D01*
G37*
G36*
X143375000Y-116075000D02*
X143470671Y-116094030D01*
X143551777Y-116148223D01*
X143605970Y-116229329D01*
X143625000Y-116325000D01*
X143625000Y-116875000D01*
X143605970Y-116970671D01*
X143551777Y-117051777D01*
X143470671Y-117105970D01*
X143375000Y-117125000D01*
X142975000Y-117125000D01*
X142879329Y-117105970D01*
X142798223Y-117051777D01*
X142744030Y-116970671D01*
X142725000Y-116875000D01*
X142725000Y-116325000D01*
X142744030Y-116229329D01*
X142798223Y-116148223D01*
X142879329Y-116094030D01*
X142975000Y-116075000D01*
X143375000Y-116075000D01*
G37*
G36*
X145025000Y-116075000D02*
X145120671Y-116094030D01*
X145201777Y-116148223D01*
X145255970Y-116229329D01*
X145275000Y-116325000D01*
X145275000Y-116875000D01*
X145255970Y-116970671D01*
X145201777Y-117051777D01*
X145120671Y-117105970D01*
X145025000Y-117125000D01*
X144625000Y-117125000D01*
X144529329Y-117105970D01*
X144448223Y-117051777D01*
X144394030Y-116970671D01*
X144375000Y-116875000D01*
X144375000Y-116325000D01*
X144394030Y-116229329D01*
X144448223Y-116148223D01*
X144529329Y-116094030D01*
X144625000Y-116075000D01*
X145025000Y-116075000D01*
G37*
G36*
X143375000Y-114075000D02*
X143470671Y-114094030D01*
X143551777Y-114148223D01*
X143605970Y-114229329D01*
X143625000Y-114325000D01*
X143625000Y-114875000D01*
X143605970Y-114970671D01*
X143551777Y-115051777D01*
X143470671Y-115105970D01*
X143375000Y-115125000D01*
X142975000Y-115125000D01*
X142879329Y-115105970D01*
X142798223Y-115051777D01*
X142744030Y-114970671D01*
X142725000Y-114875000D01*
X142725000Y-114325000D01*
X142744030Y-114229329D01*
X142798223Y-114148223D01*
X142879329Y-114094030D01*
X142975000Y-114075000D01*
X143375000Y-114075000D01*
G37*
G36*
X145025000Y-114075000D02*
X145120671Y-114094030D01*
X145201777Y-114148223D01*
X145255970Y-114229329D01*
X145275000Y-114325000D01*
X145275000Y-114875000D01*
X145255970Y-114970671D01*
X145201777Y-115051777D01*
X145120671Y-115105970D01*
X145025000Y-115125000D01*
X144625000Y-115125000D01*
X144529329Y-115105970D01*
X144448223Y-115051777D01*
X144394030Y-114970671D01*
X144375000Y-114875000D01*
X144375000Y-114325000D01*
X144394030Y-114229329D01*
X144448223Y-114148223D01*
X144529329Y-114094030D01*
X144625000Y-114075000D01*
X145025000Y-114075000D01*
G37*
G36*
X143850000Y-103100000D02*
X143869134Y-103103806D01*
X143885355Y-103114645D01*
X143896194Y-103130866D01*
X143900000Y-103150000D01*
X143900000Y-104850000D01*
X143896194Y-104869134D01*
X143885355Y-104885355D01*
X143869134Y-104896194D01*
X143850000Y-104900000D01*
X142150000Y-104900000D01*
X142130866Y-104896194D01*
X142114645Y-104885355D01*
X142103806Y-104869134D01*
X142100000Y-104850000D01*
X142100000Y-103150000D01*
X142103806Y-103130866D01*
X142114645Y-103114645D01*
X142130866Y-103103806D01*
X142150000Y-103100000D01*
X143850000Y-103100000D01*
G37*
D14*
X145540000Y-104000000D03*
X148080000Y-104000000D03*
X150620000Y-104000000D03*
X153160000Y-104000000D03*
X155700000Y-104000000D03*
G36*
X130850000Y-156100000D02*
X130869134Y-156103806D01*
X130885355Y-156114645D01*
X130896194Y-156130866D01*
X130900000Y-156150000D01*
X130900000Y-157850000D01*
X130896194Y-157869134D01*
X130885355Y-157885355D01*
X130869134Y-157896194D01*
X130850000Y-157900000D01*
X129150000Y-157900000D01*
X129130866Y-157896194D01*
X129114645Y-157885355D01*
X129103806Y-157869134D01*
X129100000Y-157850000D01*
X129100000Y-156150000D01*
X129103806Y-156130866D01*
X129114645Y-156114645D01*
X129130866Y-156103806D01*
X129150000Y-156100000D01*
X130850000Y-156100000D01*
G37*
X130000000Y-154460000D03*
X132540000Y-157000000D03*
X132540000Y-154460000D03*
X135080000Y-157000000D03*
X135080000Y-154460000D03*
X137620000Y-157000000D03*
X137620000Y-154460000D03*
X140160000Y-157000000D03*
X140160000Y-154460000D03*
D15*
X165600000Y-114600000D03*
X167200000Y-134445000D03*
X125600000Y-125400000D03*
X139600000Y-106400000D03*
X148000000Y-110000000D03*
X151000000Y-110000000D03*
X151000000Y-126000000D03*
X150600000Y-136400000D03*
D16*
X104000000Y-104000000D03*
X176000000Y-104000000D03*
X104000000Y-156000000D03*
X176000000Y-156000000D03*
M02*
