G04 STM32 CAN ECU rev A - generated by hardware/gen/fab.py*
%TF.GenerationSoftware,custom,can-ecu-gen,1.0*%
%TF.ProjectId,CAN_ECU,00000000-0000-0000-0000-000000000000,A*%
%TF.FileFunction,Profile,NP*%
%TF.FilePolarity,Positive*%
%FSLAX46Y46*%
%MOMM*%
%LPD*%
G01*
%ADD10C,0.1000*%
D10*
X178000000Y-100000000D02*
X178196000Y-100009600D01*
X178196000Y-100009600D02*
X178390200Y-100038400D01*
X178390200Y-100038400D02*
X178580600Y-100086100D01*
X178580600Y-100086100D02*
X178765400Y-100152200D01*
X178765400Y-100152200D02*
X178942800Y-100236200D01*
X178942800Y-100236200D02*
X179111100Y-100337100D01*
X179111100Y-100337100D02*
X179268800Y-100454000D01*
X179268800Y-100454000D02*
X179414200Y-100585800D01*
X179414200Y-100585800D02*
X179546000Y-100731200D01*
X179546000Y-100731200D02*
X179662900Y-100888900D01*
X179662900Y-100888900D02*
X179763800Y-101057200D01*
X179763800Y-101057200D02*
X179847800Y-101234600D01*
X179847800Y-101234600D02*
X179913900Y-101419400D01*
X179913900Y-101419400D02*
X179961600Y-101609800D01*
X179961600Y-101609800D02*
X179990400Y-101804000D01*
X179990400Y-101804000D02*
X180000000Y-102000000D01*
X180000000Y-102000000D02*
X180000000Y-158000000D01*
X180000000Y-158000000D02*
X179990400Y-158196000D01*
X179990400Y-158196000D02*
X179961600Y-158390200D01*
X179961600Y-158390200D02*
X179913900Y-158580600D01*
X179913900Y-158580600D02*
X179847800Y-158765400D01*
X179847800Y-158765400D02*
X179763800Y-158942800D01*
X179763800Y-158942800D02*
X179662900Y-159111100D01*
X179662900Y-159111100D02*
X179546000Y-159268800D01*
X179546000Y-159268800D02*
X179414200Y-159414200D01*
X179414200Y-159414200D02*
X179268800Y-159546000D01*
X179268800Y-159546000D02*
X179111100Y-159662900D01*
X179111100Y-159662900D02*
X178942800Y-159763800D01*
X178942800Y-159763800D02*
X178765400Y-159847800D01*
X178765400Y-159847800D02*
X178580600Y-159913900D01*
X178580600Y-159913900D02*
X178390200Y-159961600D01*
X178390200Y-159961600D02*
X178196000Y-159990400D01*
X178196000Y-159990400D02*
X178000000Y-160000000D01*
X178000000Y-160000000D02*
X102000000Y-160000000D01*
X102000000Y-160000000D02*
X101804000Y-159990400D01*
X101804000Y-159990400D02*
X101609800Y-159961600D01*
X101609800Y-159961600D02*
X101419400Y-159913900D01*
X101419400Y-159913900D02*
X101234600Y-159847800D01*
X101234600Y-159847800D02*
X101057200Y-159763800D01*
X101057200Y-159763800D02*
X100888900Y-159662900D01*
X100888900Y-159662900D02*
X100731200Y-159546000D01*
X100731200Y-159546000D02*
X100585800Y-159414200D01*
X100585800Y-159414200D02*
X100454000Y-159268800D01*
X100454000Y-159268800D02*
X100337100Y-159111100D01*
X100337100Y-159111100D02*
X100236200Y-158942800D01*
X100236200Y-158942800D02*
X100152200Y-158765400D01*
X100152200Y-158765400D02*
X100086100Y-158580600D01*
X100086100Y-158580600D02*
X100038400Y-158390200D01*
X100038400Y-158390200D02*
X100009600Y-158196000D01*
X100009600Y-158196000D02*
X100000000Y-158000000D01*
X100000000Y-158000000D02*
X100000000Y-102000000D01*
X100000000Y-102000000D02*
X100009600Y-101804000D01*
X100009600Y-101804000D02*
X100038400Y-101609800D01*
X100038400Y-101609800D02*
X100086100Y-101419400D01*
X100086100Y-101419400D02*
X100152200Y-101234600D01*
X100152200Y-101234600D02*
X100236200Y-101057200D01*
X100236200Y-101057200D02*
X100337100Y-100888900D01*
X100337100Y-100888900D02*
X100454000Y-100731200D01*
X100454000Y-100731200D02*
X100585800Y-100585800D01*
X100585800Y-100585800D02*
X100731200Y-100454000D01*
X100731200Y-100454000D02*
X100888900Y-100337100D01*
X100888900Y-100337100D02*
X101057200Y-100236200D01*
X101057200Y-100236200D02*
X101234600Y-100152200D01*
X101234600Y-100152200D02*
X101419400Y-100086100D01*
X101419400Y-100086100D02*
X101609800Y-100038400D01*
X101609800Y-100038400D02*
X101804000Y-100009600D01*
X101804000Y-100009600D02*
X102000000Y-100000000D01*
X102000000Y-100000000D02*
X178000000Y-100000000D01*
M02*
