G04 STM32 CAN ECU rev A - generated by hardware/gen/fab.py*
%TF.GenerationSoftware,custom,can-ecu-gen,1.0*%
%TF.ProjectId,CAN_ECU,00000000-0000-0000-0000-000000000000,A*%
%TF.FileFunction,Copper,L3,Inr*%
%TF.FilePolarity,Positive*%
%FSLAX46Y46*%
%MOMM*%
%LPD*%
G01*
%ADD10C,3.1000*%
%ADD11C,2.1000*%
%ADD12O,2.3000X2.3000*%
%ADD13C,2.5000*%
%ADD14O,2.2000X2.2000*%
%ADD15C,1.1000*%
%ADD16C,4.2000*%
%ADD17R,1.7000X1.7000*%
%ADD18C,0.6000*%
G36*
X178000000Y-100300000D02*
X178331700Y-100332700D01*
X178650600Y-100429400D01*
X178944500Y-100586500D01*
X179202100Y-100797900D01*
X179413500Y-101055500D01*
X179570600Y-101349400D01*
X179667300Y-101668300D01*
X179700000Y-102000000D01*
X179700000Y-158000000D01*
X179667300Y-158331700D01*
X179570600Y-158650600D01*
X179413500Y-158944500D01*
X179202100Y-159202100D01*
X178944500Y-159413500D01*
X178650600Y-159570600D01*
X178331700Y-159667300D01*
X178000000Y-159700000D01*
X102000000Y-159700000D01*
X101668300Y-159667300D01*
X101349400Y-159570600D01*
X101055500Y-159413500D01*
X100797900Y-159202100D01*
X100586500Y-158944500D01*
X100429400Y-158650600D01*
X100332700Y-158331700D01*
X100300000Y-158000000D01*
X100300000Y-102000000D01*
X100332700Y-101668300D01*
X100429400Y-101349400D01*
X100586500Y-101055500D01*
X100797900Y-100797900D01*
X101055500Y-100586500D01*
X101349400Y-100429400D01*
X101668300Y-100332700D01*
X102000000Y-100300000D01*
X178000000Y-100300000D01*
G37*
%LPC*%
G36*
X106300000Y-116450000D02*
X106395671Y-116469030D01*
X106476777Y-116523223D01*
X106530970Y-116604329D01*
X106550000Y-116700000D01*
X106550000Y-119300000D01*
X106530970Y-119395671D01*
X106476777Y-119476777D01*
X106395671Y-119530970D01*
X106300000Y-119550000D01*
X103700000Y-119550000D01*
X103604329Y-119530970D01*
X103523223Y-119476777D01*
X103469030Y-119395671D01*
X103450000Y-119300000D01*
X103450000Y-116700000D01*
X103469030Y-116604329D01*
X103523223Y-116523223D01*
X103604329Y-116469030D01*
X103700000Y-116450000D01*
X106300000Y-116450000D01*
G37*
D10*
X105000000Y-112920000D03*
G36*
X129800000Y-119950000D02*
X129895671Y-119969030D01*
X129976777Y-120023223D01*
X130030970Y-120104329D01*
X130050000Y-120200000D01*
X130050000Y-121800000D01*
X130030970Y-121895671D01*
X129976777Y-121976777D01*
X129895671Y-122030970D01*
X129800000Y-122050000D01*
X128200000Y-122050000D01*
X128104329Y-122030970D01*
X128023223Y-121976777D01*
X127969030Y-121895671D01*
X127950000Y-121800000D01*
X127950000Y-120200000D01*
X127969030Y-120104329D01*
X128023223Y-120023223D01*
X128104329Y-119969030D01*
X128200000Y-119950000D01*
X129800000Y-119950000D01*
G37*
D11*
X131500000Y-121000000D03*
G36*
X122900000Y-107850000D02*
X122995671Y-107869030D01*
X123076777Y-107923223D01*
X123130970Y-108004329D01*
X123150000Y-108100000D01*
X123150000Y-109900000D01*
X123130970Y-109995671D01*
X123076777Y-110076777D01*
X122995671Y-110130970D01*
X122900000Y-110150000D01*
X121100000Y-110150000D01*
X121004329Y-110130970D01*
X120923223Y-110076777D01*
X120869030Y-109995671D01*
X120850000Y-109900000D01*
X120850000Y-108100000D01*
X120869030Y-108004329D01*
X120923223Y-107923223D01*
X121004329Y-107869030D01*
X121100000Y-107850000D01*
X122900000Y-107850000D01*
G37*
D12*
X124540000Y-109000000D03*
X127080000Y-109000000D03*
D13*
X109000000Y-146000000D03*
X109000000Y-150500000D03*
X115500000Y-146000000D03*
X115500000Y-150500000D03*
X119500000Y-146000000D03*
X119500000Y-150500000D03*
X126000000Y-146000000D03*
X126000000Y-150500000D03*
G36*
X163850000Y-140100000D02*
X163945671Y-140119030D01*
X164026777Y-140173223D01*
X164080970Y-140254329D01*
X164100000Y-140350000D01*
X164100000Y-142050000D01*
X164080970Y-142145671D01*
X164026777Y-142226777D01*
X163945671Y-142280970D01*
X163850000Y-142300000D01*
X162150000Y-142300000D01*
X162054329Y-142280970D01*
X161973223Y-142226777D01*
X161919030Y-142145671D01*
X161900000Y-142050000D01*
X161900000Y-140350000D01*
X161919030Y-140254329D01*
X161973223Y-140173223D01*
X162054329Y-140119030D01*
X162150000Y-140100000D01*
X163850000Y-140100000D01*
G37*
D14*
X165540000Y-141200000D03*
X163000000Y-143740000D03*
X165540000Y-143740000D03*
G36*
X176600000Y-111350000D02*
X176695671Y-111369030D01*
X176776777Y-111423223D01*
X176830970Y-111504329D01*
X176850000Y-111600000D01*
X176850000Y-114200000D01*
X176830970Y-114295671D01*
X176776777Y-114376777D01*
X176695671Y-114430970D01*
X176600000Y-114450000D01*
X174000000Y-114450000D01*
X173904329Y-114430970D01*
X173823223Y-114376777D01*
X173769030Y-114295671D01*
X173750000Y-114200000D01*
X173750000Y-111600000D01*
X173769030Y-111504329D01*
X173823223Y-111423223D01*
X173904329Y-111369030D01*
X174000000Y-111350000D01*
X176600000Y-111350000D01*
G37*
D10*
X175300000Y-117980000D03*
X175300000Y-123060000D03*
G36*
X176600000Y-127815000D02*
X176695671Y-127834030D01*
X176776777Y-127888223D01*
X176830970Y-127969329D01*
X176850000Y-128065000D01*
X176850000Y-130665000D01*
X176830970Y-130760671D01*
X176776777Y-130841777D01*
X176695671Y-130895970D01*
X176600000Y-130915000D01*
X174000000Y-130915000D01*
X173904329Y-130895970D01*
X173823223Y-130841777D01*
X173769030Y-130760671D01*
X173750000Y-130665000D01*
X173750000Y-128065000D01*
X173769030Y-127969329D01*
X173823223Y-127888223D01*
X173904329Y-127834030D01*
X174000000Y-127815000D01*
X176600000Y-127815000D01*
G37*
X175300000Y-134445000D03*
X175300000Y-139525000D03*
D14*
X145540000Y-104000000D03*
X148080000Y-104000000D03*
X150620000Y-104000000D03*
X153160000Y-104000000D03*
X155700000Y-104000000D03*
X130000000Y-154460000D03*
X132540000Y-157000000D03*
X132540000Y-154460000D03*
X135080000Y-157000000D03*
X135080000Y-154460000D03*
X137620000Y-157000000D03*
X137620000Y-154460000D03*
X140160000Y-157000000D03*
X140160000Y-154460000D03*
D15*
X137512500Y-110000000D03*
X153625000Y-129365000D03*
X153625000Y-130635000D03*
X170000000Y-130635000D03*
X167137500Y-119000000D03*
X140250000Y-134600000D03*
X141700000Y-134550000D03*
X142500000Y-130450000D03*
X138300000Y-129500000D03*
X138450000Y-118900000D03*
X140250000Y-122900000D03*
X116500000Y-127825000D03*
X125875000Y-124125000D03*
X132500000Y-112050000D03*
X137075000Y-114100000D03*
X141900000Y-113400000D03*
X137675000Y-104000000D03*
X123000000Y-138225000D03*
X125400000Y-138175000D03*
X136200000Y-123225000D03*
X147600000Y-125925000D03*
X145200000Y-137725000D03*
X150100000Y-124000000D03*
X134400000Y-123225000D03*
X138075000Y-142600000D03*
X139200000Y-138025000D03*
X141000000Y-138025000D03*
X132375000Y-129125000D03*
X128625000Y-132175000D03*
X125325000Y-129550000D03*
X131350000Y-136075000D03*
X119675000Y-142000000D03*
X137125000Y-118800000D03*
X127675000Y-143600000D03*
X149000000Y-152275000D03*
X151500000Y-152275000D03*
X154000000Y-152275000D03*
X156500000Y-152275000D03*
X142000000Y-145225000D03*
X145400000Y-145225000D03*
X154225000Y-128825000D03*
X157875000Y-135200000D03*
X162075000Y-135200000D03*
X158300000Y-137400000D03*
X163775000Y-121000000D03*
X165950000Y-146900000D03*
X143600000Y-119125000D03*
X140475000Y-117600000D03*
X152175000Y-110000000D03*
X138250000Y-124125000D03*
X140125000Y-120875000D03*
X141250000Y-122125000D03*
X140000000Y-120000000D03*
X141875000Y-119625000D03*
X139250000Y-126125000D03*
X139250000Y-118625000D03*
X140375000Y-116750000D03*
X144875000Y-117625000D03*
X141000000Y-123750000D03*
X139125000Y-129125000D03*
X135375000Y-124875000D03*
X149250000Y-136000000D03*
X151000000Y-137750000D03*
X143000000Y-132250000D03*
X156875000Y-131250000D03*
X138375000Y-139750000D03*
X138250000Y-135000000D03*
X130500000Y-134375000D03*
X132125000Y-134375000D03*
X129375000Y-135125000D03*
X132250000Y-133000000D03*
X140125000Y-129125000D03*
X146375000Y-122625000D03*
X130500000Y-138250000D03*
X134250000Y-130500000D03*
X137375000Y-111500000D03*
X146375000Y-117375000D03*
X147375000Y-118375000D03*
X153375000Y-133000000D03*
X154750000Y-134500000D03*
D16*
X104000000Y-104000000D03*
X176000000Y-104000000D03*
X104000000Y-156000000D03*
X176000000Y-156000000D03*
%LPD*%
D17*
X143000000Y-104000000D03*
X130000000Y-157000000D03*
D18*
X142750000Y-133900000D03*
X142600000Y-129250000D03*
X137250000Y-130200000D03*
X139000000Y-122900000D03*
X142050000Y-121800000D03*
X140900000Y-118500000D03*
X139400000Y-108275000D03*
X138850000Y-114550000D03*
X136200000Y-126575000D03*
X147600000Y-129275000D03*
X145200000Y-141075000D03*
X145900000Y-124000000D03*
X134400000Y-126575000D03*
X134725000Y-140600000D03*
X137225000Y-121200000D03*
X124275000Y-142000000D03*
X161450000Y-132900000D03*
X163025000Y-125400000D03*
X158725000Y-135200000D03*
X137125000Y-117600000D03*
X142275000Y-116600000D03*
X142275000Y-114600000D03*
X149175000Y-110000000D03*
M02*
